<svg width="86" height="68" viewBox="0 0 86 68" fill="none" xmlns="http://www.w3.org/2000/svg">
<path fill-rule="evenodd" clip-rule="evenodd" d="M39.8818 0.0661089C35.69 0.300935 31.0311 1.15393 27.0492 2.41569C24.6146 3.18715 21.3527 4.55177 19.1678 5.71302C5.33061 13.067 -1.91201 25.8795 0.437187 38.848C1.93825 47.1347 7.36225 54.7582 15.6131 60.1783C23.5853 65.4152 33.6023 68.1799 43.9193 67.9909C46.9942 67.9346 49.5379 67.6935 52.4063 67.1864C68.1079 64.4108 80.7723 54.652 84.6875 42.3115C87.1615 34.5132 86.1208 26.4374 81.7105 19.2099C78.7279 14.3221 74.0846 9.886 68.5871 6.6722C61.9008 2.76335 54.1855 0.514911 45.8942 0.0587662C44.4155 -0.022557 41.399 -0.0188857 39.8818 0.0661089ZM47.2985 3.06606C52.0256 3.51639 56.1144 4.46318 60.2009 6.05369C64.1234 7.58034 67.1985 9.28958 70.2859 11.6591C73.5595 14.1716 76.0189 16.801 78.0617 19.9719C80.4827 23.73 81.8337 27.6064 82.2386 31.9556C82.3648 33.3118 82.2949 36.0023 82.0982 37.3587C81.056 44.5434 77.1409 50.9753 70.7346 56.027C64.9782 60.5663 57.7107 63.5551 49.7736 64.6474C47.2895 64.9892 46.1358 65.0611 43.0855 65.064C39.6245 65.0674 37.9435 64.9393 34.8789 64.4389C23.8337 62.6353 13.9796 56.8554 8.55383 48.9981C5.98187 45.2734 4.53373 41.6438 3.88229 37.2894C3.66269 35.8209 3.66269 32.1773 3.88229 30.7088C4.21398 28.4918 4.76483 26.4252 5.52572 24.5432C8.80029 16.4444 16.1552 9.73623 25.8384 6.01649C30.4608 4.24082 34.8108 3.32486 40.4523 2.93916C41.4455 2.87128 46.1741 2.9589 47.2985 3.06606ZM18.4657 18.2655C18.176 18.3312 17.7218 18.4762 17.4563 18.5878C16.768 18.877 15.8076 19.6622 15.4623 20.218C14.8791 21.1567 14.9136 20.2922 14.9136 33.9991C14.9136 47.706 14.8791 46.8415 15.4623 47.7802C15.8201 48.3563 16.7761 49.1282 17.5002 49.426C18.6466 49.8974 16.5282 49.862 43.5985 49.862C61.1409 49.862 68.2236 49.8402 68.5568 49.7854C69.6797 49.6006 70.7898 49.0038 71.4654 48.2218C71.9312 47.6826 72.1809 47.1732 72.3137 46.4914C72.3764 46.1697 72.3982 42.0585 72.3816 33.6874L72.3572 21.3573L72.1168 20.7977C71.5548 19.4897 70.1595 18.4765 68.5568 18.2128C68.2232 18.1579 61.1478 18.1376 43.542 18.1411C20.575 18.1458 18.9583 18.1538 18.4657 18.2655ZM66.3302 20.9642C66.3074 21.0088 53.3081 30.4189 47.5173 34.5828C45.1287 36.3003 43.9582 36.7544 42.8661 36.3871C41.9019 36.0628 41.1155 35.5665 38.0386 33.3406C36.9283 32.5373 32.7219 29.5006 28.691 26.5923C24.6601 23.684 21.2444 21.2151 21.1005 21.1058L20.8388 20.907H43.5992C56.1173 20.907 66.3463 20.9327 66.3302 20.9642ZM24.9589 28.1175C28.2888 30.4951 31.5276 32.8078 32.1561 33.2567C32.7847 33.7055 33.299 34.099 33.299 34.1309C33.299 34.1782 19.1578 44.6128 18.6573 44.9349C18.5189 45.024 18.5095 44.3464 18.5095 34.2726V23.5151L18.707 23.6548C18.8157 23.7317 21.629 25.7399 24.9589 28.1175ZM68.8024 34.315V45.0907L66.279 43.2331C64.8912 42.2114 61.5525 39.7575 58.8597 37.7801C56.167 35.8026 53.9778 34.1518 53.9947 34.1117C54.0317 34.0241 68.642 23.5507 68.7366 23.544C68.7729 23.5414 68.8024 28.3884 68.8024 34.315ZM37.2643 37.1893C38.8792 38.347 39.2921 38.5954 40.1401 38.9193C41.339 39.3773 42.0364 39.4924 43.6121 39.4924C45.1831 39.4924 45.8948 39.3762 47.0791 38.9262C47.9618 38.5908 48.5226 38.2583 50.0581 37.1601C50.7311 36.6788 51.3068 36.285 51.3376 36.285C51.3879 36.285 65.2646 46.2941 65.9923 46.8554L66.2981 47.0912H43.6764C31.2346 47.0912 21.0579 47.0678 21.0616 47.0392C21.074 46.9418 35.844 36.2925 35.9478 36.3061C36.0047 36.3136 36.5972 36.711 37.2643 37.1893Z" fill="url(#paint0_linear_9_265)"/>
<defs>
<linearGradient id="paint0_linear_9_265" x1="0" y1="34" x2="86" y2="34" gradientUnits="userSpaceOnUse">
<stop stop-color="#0B3F66"/>
<stop offset="1" stop-color="#008EEC"/>
</linearGradient>
</defs>
</svg>
