<svg width="88" height="81" viewBox="0 0 88 81" fill="none" xmlns="http://www.w3.org/2000/svg">
<path fill-rule="evenodd" clip-rule="evenodd" d="M29.4957 20.3699L18.0588 26.7299L18.0294 27.8171L18 28.9043H20.4876H22.9751L22.9753 29.8617L22.9754 30.8191L23.8031 32.0611L24.6308 33.3031V43.8085V54.314L23.8031 55.556L22.9754 56.798L22.9753 57.7554L22.9751 58.7128H22.1471H21.3191V59.5408V60.3688H44.5035H67.6879V59.5408V58.7128H66.8599H66.0319L66.0317 57.7554L66.0316 56.798L65.2039 55.556L64.3762 54.314V43.8085V33.3031L65.2039 32.0611L66.0316 30.8191L66.0317 29.8617L66.0319 28.9043H68.516H71V27.8315V26.7588L59.5165 20.3793L48.0328 14L44.4828 14.005L40.9327 14.0098L29.4957 20.3699ZM49.0452 16.4582L50.4878 17.2603L48.3237 17.2883L46.1595 17.3162V18.1421V18.9681H49.8507H53.5419L55 19.7702L56.458 20.5724L52.9648 20.5996L49.4716 20.6269V21.4535V22.2802H54.499H59.5263L60.9674 23.0823L62.4084 23.8844L55.112 23.911L47.8156 23.9375V24.7649V25.5922H56.6487H65.4819L66.973 26.4194L68.4642 27.2467L44.5035 27.2474L20.5428 27.248L30.9448 21.4595L41.3467 15.6709L44.4746 15.6635L47.6025 15.656L49.0452 16.4582ZM44.5035 24.7642V25.5922H45.3315H46.1595V24.7642V23.9362H45.3315H44.5035V24.7642ZM32.9113 29.5977C32.9113 30.2734 32.895 30.316 32.2766 31.2538L31.642 32.2163H28.7712H25.9005L25.2658 31.2538C24.6475 30.316 24.6312 30.2734 24.6312 29.5977V28.9043H28.7712H32.9113V29.5977ZM54.4399 29.8617L54.44 30.8191L55.2677 32.0611L56.0954 33.3031V43.8085V54.314L55.2677 55.556L54.44 56.798L54.4399 57.7554L54.4397 58.7128H44.5035H34.5673L34.5671 57.7554L34.567 56.798L33.7393 55.556L32.9116 54.314V43.8085V33.3031L33.7393 32.0611L34.567 30.8191L34.5671 29.8617L34.5673 28.9043H44.5035H54.4397L54.4399 29.8617ZM64.3759 29.5977C64.3759 30.2734 64.3595 30.316 63.7412 31.2538L63.1065 32.2163H60.2358H57.3651L56.7304 31.2538C56.1121 30.316 56.0957 30.2734 56.0957 29.5977V28.9043H60.2358H64.3759V29.5977ZM31.2553 43.8085V53.7447H28.7712H26.2872V43.8085V33.8724H28.7712H31.2553V43.8085ZM62.7198 43.8085V53.7447H60.2358H57.7518V43.8085V33.8724H60.2358H62.7198V43.8085ZM43.3132 34.7723C42.6945 34.854 41.4367 35.2121 40.837 35.4775C35.8505 37.6838 33.9087 43.7969 36.7031 48.4916C37.3678 49.6084 38.7037 50.9443 39.8205 51.609C43.4084 53.7447 47.9888 53.1788 50.9313 50.2363C52.0894 49.0783 52.911 47.6197 53.3618 45.9216C53.6453 44.8536 53.6295 42.6898 53.3301 41.5833C52.3766 38.0604 49.5894 35.4657 46.106 34.8582C45.2676 34.712 44.0537 34.6747 43.3132 34.7723ZM27.9432 43.8085V52.0887H28.7712H29.5992V43.8085V35.5284H28.7712H27.9432V43.8085ZM59.4078 43.8085V52.0887H60.2358H61.0638V43.8085V35.5284H60.2358H59.4078V43.8085ZM45.8658 36.5026C46.9236 36.706 47.6815 37.0106 48.5615 37.5858C49.6051 38.268 50.5932 39.365 51.1143 40.4206C51.75 41.7081 51.9032 42.395 51.8928 43.912C51.8853 45.0148 51.8438 45.3282 51.6119 46.0338C51.2223 47.22 50.6781 48.0882 49.7307 49.0357C48.7832 49.9832 47.9149 50.5274 46.7288 50.9169C46.0231 51.1488 45.7097 51.1903 44.607 51.1979C43.09 51.2082 42.4031 51.055 41.1156 50.4193C39.6161 49.679 38.146 48.0648 37.5652 46.521C36.7702 44.4079 36.9559 41.9808 38.0575 40.0825C38.5387 39.2535 39.9008 37.8732 40.7007 37.4042C42.2751 36.4808 44.0985 36.1625 45.8658 36.5026ZM43.6755 38.8405C43.6755 39.5376 43.6488 39.6685 43.5064 39.6685C42.7171 39.6685 41.5559 40.5807 41.3173 41.3883C41.0306 42.3587 41.2328 43.1324 41.9642 43.8638C42.6182 44.5178 43.007 44.6366 44.4943 44.6366C45.5849 44.6366 45.6661 44.6511 45.9055 44.8907C46.0657 45.0508 46.1595 45.2629 46.1595 45.4646C46.1595 45.6662 46.0657 45.8784 45.9055 46.0385C45.6551 46.289 45.6256 46.2926 43.8354 46.2926H42.0195V47.1206V47.9486H42.8475H43.6755V48.7766V49.6046H44.5035H45.3315V48.7766C45.3315 48.0446 45.3534 47.9486 45.5201 47.9486C46.0166 47.9486 46.6922 47.5999 47.122 47.1218C48.0845 46.0513 48.0543 44.7647 47.0428 43.7533C46.3888 43.0992 46.0001 42.9805 44.5127 42.9805C43.4221 42.9805 43.341 42.9659 43.1016 42.7264C42.7654 42.3904 42.7654 41.9147 43.1016 41.5786C43.352 41.3281 43.3815 41.3245 45.1716 41.3245H46.9876V40.4965V39.6685H46.1595H45.3315V38.8405V38.0124H44.5035H43.6755V38.8405ZM32.2766 56.3633C32.895 57.301 32.9113 57.3437 32.9113 58.0193V58.7128H28.7712H24.6312V58.0193C24.6312 57.3437 24.6475 57.301 25.2658 56.3633L25.9005 55.4008H28.7712H31.642L32.2766 56.3633ZM63.7412 56.3633C64.3595 57.301 64.3759 57.3437 64.3759 58.0193V58.7128H60.2358H56.0957V58.0193C56.0957 57.3437 56.1121 57.301 56.7304 56.3633L57.3651 55.4008H60.2358H63.1065L63.7412 56.3633ZM19.6631 62.8529V63.6809H44.5035H69.344V62.8529V62.0249H44.5035H19.6631V62.8529ZM18.007 66.1649V66.993H44.5035H71V66.1649V65.3369H44.5035H18.007V66.1649Z" fill="url(#paint0_linear_10_340)"/>
<path d="M85.5 40.5C85.5 61.2958 67.1189 78.5 44 78.5C20.8811 78.5 2.5 61.2958 2.5 40.5C2.5 19.7042 20.8811 2.5 44 2.5C67.1189 2.5 85.5 19.7042 85.5 40.5Z" stroke="url(#paint1_linear_10_340)" stroke-width="5"/>
<defs>
<linearGradient id="paint0_linear_10_340" x1="18" y1="40.4965" x2="71" y2="40.4965" gradientUnits="userSpaceOnUse">
<stop stop-color="#0B3F66"/>
<stop offset="1" stop-color="#008EEC"/>
</linearGradient>
<linearGradient id="paint1_linear_10_340" x1="0" y1="40.5" x2="88" y2="40.5" gradientUnits="userSpaceOnUse">
<stop stop-color="#0B3F66"/>
<stop offset="1" stop-color="#008EEC"/>
</linearGradient>
</defs>
</svg>
