<svg width="88" height="81" viewBox="0 0 88 81" fill="none" xmlns="http://www.w3.org/2000/svg">
<path d="M85.5 40.5C85.5 61.2958 67.1189 78.5 44 78.5C20.8811 78.5 2.5 61.2958 2.5 40.5C2.5 19.7042 20.8811 2.5 44 2.5C67.1189 2.5 85.5 19.7042 85.5 40.5Z" stroke="url(#paint0_linear_11_5)" stroke-width="5"/>
<path fill-rule="evenodd" clip-rule="evenodd" d="M55.6889 15.2284C53.3165 15.8469 51.3557 17.4572 50.3135 19.6429C49.7654 20.792 49.5964 21.4786 49.515 22.8853L49.4452 24.0922H42.1356H34.8261L34.7673 24.3449C34.7351 24.4839 34.6961 25.1027 34.6806 25.7203L34.6527 26.843L31.2702 26.8992L27.8878 26.9553L27.856 28.4147C27.8247 29.8513 27.8189 29.8806 27.482 30.2981C26.9382 30.9719 26.671 31.6914 26.6174 32.6253C26.5604 33.6186 26.8227 34.4552 27.4464 35.2687L27.8314 35.771V46.7079C27.8314 52.7232 27.8622 57.7247 27.8998 57.8224C27.9616 57.9828 29.1731 58 40.4592 58C51.7453 58 52.9568 57.9828 53.0185 57.8224C53.0562 57.7247 53.087 57.1689 53.087 56.5873V55.5299L56.7231 55.5282C58.723 55.5272 60.4302 55.4817 60.5169 55.4271C60.6036 55.3724 60.6894 55.1332 60.7075 54.8955C60.7257 54.6577 60.7436 49.1565 60.7472 42.6703L60.7539 30.8773L61.4583 30.5444C63.4944 29.5818 65.1701 27.5217 65.7931 25.215C66.0893 24.1181 66.0641 22.1562 65.739 21.0272C64.9012 18.1167 62.6885 15.9591 59.7826 15.2191C58.6219 14.9234 56.8427 14.9275 55.6889 15.2284ZM59.8123 16.0398C64.0486 17.2617 66.3409 21.8512 64.7315 25.8887C63.9072 27.9565 62.1442 29.6213 60.0774 30.2838C59.0287 30.6198 57.2088 30.6908 56.0758 30.4397C53.607 29.8927 51.4534 27.9422 50.6438 25.5198C50.3738 24.712 50.3356 24.4232 50.3356 23.194C50.3356 21.9727 50.3746 21.674 50.6364 20.8923C51.4147 18.5685 53.3144 16.7429 55.6799 16.0452C56.8812 15.691 58.5948 15.6887 59.8123 16.0398ZM56.7795 17.8137C56.6216 17.9053 56.5822 18.0836 56.5822 18.7062V19.4843L56.1594 19.7008C54.6199 20.4894 54.4741 22.2018 55.8713 23.0841C56.1692 23.2723 56.8998 23.5759 57.4948 23.7587C58.8415 24.1725 59.3112 24.4724 59.4443 25.0034C59.6655 25.8861 58.9391 26.5119 57.7097 26.4978C56.7842 26.4872 56.1278 26.1766 55.8649 25.6247C55.7633 25.4116 55.6802 25.1817 55.6802 25.1138C55.6802 25.0424 55.4663 24.9905 55.1728 24.9905C54.738 24.9905 54.6655 25.023 54.6655 25.2186C54.6655 25.8774 55.3882 26.7388 56.1801 27.024L56.5822 27.1689V27.9184C56.5822 28.7482 56.7706 29.0687 57.1272 28.8458C57.2625 28.7612 57.3245 28.5336 57.3488 28.0313C57.3801 27.3853 57.4007 27.3367 57.6306 27.3693C57.8408 27.399 57.8818 27.4818 57.8983 27.9097C57.9091 28.1876 57.9217 28.4979 57.9265 28.5994C57.9366 28.8143 58.1997 28.9413 58.4425 28.8485C58.5685 28.8004 58.6116 28.6004 58.6116 28.0646V27.3455L59.2036 27.0813C60.138 26.6644 60.5284 26.1106 60.5284 25.2021C60.5284 24.6757 60.3324 24.2613 59.8901 23.8524C59.4695 23.4636 59.087 23.2802 57.958 22.9262C56.3896 22.4346 56.0184 22.1465 56.0184 21.4214C56.0184 20.7203 56.3922 20.3794 57.3305 20.2242C58.2868 20.0661 59.1982 20.5354 59.4025 21.2914C59.5199 21.7257 59.5326 21.7344 60.0401 21.7344H60.5579L60.4913 21.3259C60.3899 20.7035 59.9108 20.1084 59.223 19.7506L58.6122 19.4327L58.6119 18.6307C58.6118 18.0216 58.5709 17.8132 58.4425 17.7641C58.0804 17.6257 57.9355 17.8118 57.9211 18.4342C57.9004 19.3191 57.9011 19.3173 57.6251 19.3564C57.3848 19.3903 57.3714 19.3545 57.3714 18.6771C57.3714 18.2705 57.313 17.9037 57.2361 17.8272C57.0745 17.6663 57.0357 17.6651 56.7795 17.8137ZM34.0594 18.6088C33.8977 18.7698 33.8631 21.1346 34.0188 21.3793C34.0714 21.4619 34.2355 21.5124 34.3835 21.4916C34.6514 21.4539 34.6527 21.4471 34.6527 19.9941C34.6527 18.6173 34.6398 18.5327 34.4258 18.5022C34.3011 18.4843 34.1362 18.5324 34.0594 18.6088ZM24.8294 19.2045C24.7945 19.2951 24.7834 19.4189 24.8048 19.4798C24.905 19.7654 28.5553 23.5308 28.732 23.5308C28.9934 23.5308 29.2274 23.243 29.1158 23.0586C29.0676 22.9787 28.2139 22.0418 27.2192 20.9765C25.8916 19.555 25.3415 19.0398 25.1516 19.0398C25.0093 19.0398 24.8643 19.1139 24.8294 19.2045ZM49.8045 25.4326C50.336 27.4974 52.0473 29.5614 54.0414 30.5426C55.3903 31.2064 56.4909 31.427 58.0956 31.3553C58.8445 31.3219 59.5587 31.2782 59.6828 31.2582C59.907 31.2221 59.9082 31.2846 59.9082 42.9548V54.6878L56.4976 54.7176L53.087 54.7472V43.3356V31.9238L52.2132 31.1267C51.7327 30.6883 50.5509 29.5578 49.5874 28.6144L47.8354 26.8992H41.8452C38.5506 26.8992 35.7747 26.8685 35.6766 26.831C35.5336 26.7763 35.4983 26.5763 35.4983 25.8205V24.8782H42.5801H49.6619L49.8045 25.4326ZM23.0881 27.5261C22.9806 27.6551 22.9724 27.7553 23.0584 27.891C23.1593 28.0502 23.3995 28.0781 24.6744 28.0781C25.9494 28.0781 26.1896 28.0502 26.2905 27.891C26.3765 27.7553 26.3683 27.6551 26.2608 27.5261C26.1397 27.3808 25.8491 27.3483 24.6744 27.3483C23.4998 27.3483 23.2092 27.3808 23.0881 27.5261ZM47.2016 28.3449C47.2347 29.0419 47.2287 29.0592 46.9761 28.9993C44.739 28.4696 44.454 28.4349 42.3195 28.433C40.4605 28.4312 40.0589 28.4634 39.2819 28.6765C38.0549 29.0129 36.8324 29.6372 36.1062 30.2981C35.2005 31.1224 35.2757 31.3352 36.5694 31.6093C36.9414 31.6881 37.2801 31.7728 37.322 31.7974C37.3638 31.8221 37.2446 32.2977 37.0571 32.8545C36.7833 33.6677 36.7432 33.8992 36.854 34.0319C37.0684 34.2894 37.2499 34.235 37.9915 33.6915C38.8447 33.0659 39.8655 32.5737 40.8102 32.3322C42.2059 31.9752 44.3448 32.3324 46.0895 33.2136C46.8393 33.5925 47.1888 33.716 47.2734 33.6321C47.3392 33.5666 47.4443 33.2755 47.5067 32.9851L47.6203 32.4569H49.9308H52.2414L52.27 44.8355L52.2988 57.2141H40.4596H28.6206V46.7723C28.6206 41.0293 28.6476 36.3305 28.6806 36.3305C28.7136 36.3305 28.913 36.4022 29.1236 36.4898C30.7297 37.1581 32.8264 36.4806 33.8014 34.9782C34.8892 33.3022 34.6391 31.2719 33.1815 29.9453C32.3865 29.2217 31.591 28.9185 30.5049 28.9251C30.0577 28.9278 29.4888 29.0028 29.2407 29.0918C28.9927 29.1808 28.7516 29.2544 28.7052 29.2553C28.6002 29.2574 28.5921 27.751 28.6964 27.647C28.7381 27.6055 32.9113 27.5844 37.9699 27.6002L47.1677 27.629L47.2016 28.3449ZM51.2245 31.298L51.5606 31.6148H49.787H48.0133V29.9118V28.2089L49.4509 29.5949C50.2414 30.3573 51.0396 31.1237 51.2245 31.298ZM44.2363 29.2611C45.3139 29.3829 46.9607 29.7789 47.0609 29.9403C47.094 29.9935 47.0427 30.5959 46.9471 31.2789C46.8513 31.9619 46.7731 32.5411 46.7731 32.566C46.7731 32.5908 46.4413 32.4614 46.0356 32.2783C44.868 31.751 43.5151 31.4692 42.094 31.4571C40.7112 31.4452 40.0008 31.6281 38.6834 32.335C38.2959 32.543 37.9787 32.6772 37.9787 32.6331C37.9787 32.589 38.06 32.3154 38.1594 32.0251C38.3868 31.3606 38.2909 31.2262 37.4575 31.0405C37.1183 30.965 36.8173 30.865 36.7884 30.8184C36.666 30.6213 38.1185 29.8351 39.1647 29.5322C40.4936 29.1475 42.3513 29.0483 44.2363 29.2611ZM31.834 29.9709C33.5087 30.751 34.1663 32.7499 33.2706 34.338C32.1901 36.2536 29.546 36.5072 28.1071 34.8333C26.7144 33.213 27.4168 30.5998 29.4455 29.855C30.0795 29.6222 31.2024 29.6767 31.834 29.9709ZM29.6917 30.5486C29.0277 30.7826 28.3476 31.5501 28.1771 32.2577C27.9822 33.0666 28.2335 33.9239 28.8432 34.5311C29.8645 35.5481 31.692 35.3732 32.523 34.1791C32.9611 33.5496 33.0402 32.4312 32.6946 31.7563C32.1194 30.6336 30.8729 30.1323 29.6917 30.5486ZM31.0656 31.2852C32.0398 31.6516 32.4397 32.8066 31.896 33.6827C31.6156 34.1348 31.0587 34.4219 30.4639 34.4213C29.2022 34.4201 28.438 32.8659 29.2153 31.8819C29.7164 31.2474 30.389 31.0305 31.0656 31.2852ZM38.114 36.1284C37.9358 36.3059 37.9432 36.3914 38.1559 36.6032C38.3125 36.759 39.0144 36.7796 44.1741 36.7796C50.4439 36.7796 50.3923 36.7843 50.2136 36.2236C50.141 35.9957 50.0878 35.9936 44.1949 35.9936C39.7209 35.9936 38.2158 36.027 38.114 36.1284ZM36.068 40.1969C35.968 40.3168 35.9656 40.4177 36.0586 40.5907C36.1832 40.8226 36.2045 40.8231 43.1291 40.7944C49.4689 40.7679 50.085 40.7491 50.1931 40.5784C50.2791 40.4426 50.2709 40.3425 50.1634 40.2135C50.0311 40.0547 49.2727 40.0356 43.1088 40.0356C37.2439 40.0356 36.1821 40.06 36.068 40.1969ZM36.1264 43.4681C36.029 43.5652 35.9493 43.6814 35.9493 43.7263C35.9493 44.0616 36.2804 44.0776 43.1801 44.0776C50.0957 44.0776 50.1408 44.0761 50.2136 43.8477C50.3941 43.2813 50.5248 43.2917 43.1594 43.2917C37.0772 43.2917 36.2837 43.3115 36.1264 43.4681ZM36.0582 47.3408C35.7542 47.9064 35.656 47.8991 43.1392 47.8679C49.4696 47.8414 50.085 47.8226 50.1931 47.6518C50.2791 47.5161 50.2709 47.416 50.1634 47.2869C50.0311 47.1282 49.2718 47.1091 43.099 47.1091C36.2267 47.1091 36.1819 47.1106 36.0582 47.3408ZM34.0656 50.8369C34.0015 50.9171 33.9145 51.1848 33.8721 51.4318C33.7392 52.2065 33.6928 52.2713 33.0375 52.6015C31.2941 53.4799 30.3379 55.0924 31.1727 55.7463C31.7476 56.1967 32.6756 55.9956 33.2199 55.3029C33.5221 54.918 33.9788 53.9964 34.1505 53.4247C34.2892 52.9629 34.3088 52.9475 34.7617 52.9475C35.0191 52.9475 35.3267 53.0181 35.4452 53.1044C35.6553 53.2574 35.6531 53.2794 35.354 54.0048C34.9765 54.92 34.9723 55.1286 35.3241 55.4788C35.5355 55.6894 35.7199 55.7545 36.1059 55.7545C37.0322 55.7545 37.6599 55.348 38.0441 54.4995C38.1984 54.1589 38.3761 53.9869 38.7622 53.8043C39.3052 53.5475 39.4344 53.2403 39.0902 53.0241C38.9554 52.9394 38.7601 52.9629 38.3722 53.1104C37.9537 53.2695 37.7757 53.4222 37.5426 53.8217C37.0517 54.6631 36.7015 54.9685 36.2277 54.9685C35.8757 54.9685 35.825 54.9385 35.8953 54.772C36.3192 53.7666 36.4104 53.4294 36.3479 53.0977C36.2606 52.6342 35.7932 52.2944 35.1157 52.202L34.6012 52.1317L34.627 51.4449C34.6502 50.8244 34.63 50.7549 34.4172 50.7247C34.2878 50.7062 34.1296 50.7568 34.0656 50.8369ZM43.5079 51.3141C43.4331 51.4038 43.3896 51.568 43.411 51.679C43.4474 51.8671 43.6783 51.8829 46.7946 51.9106C50.0871 51.9398 50.1404 51.9367 50.2131 51.7088C50.3833 51.1748 50.2396 51.1511 46.8295 51.1511C44.1821 51.1511 43.6208 51.1786 43.5079 51.3141ZM33.2336 53.7054C33.0285 54.2469 32.5668 54.9605 32.3452 55.0788C31.999 55.2632 31.6648 55.219 31.6648 54.9887C31.6648 54.6123 32.8874 53.399 33.2687 53.3971C33.3137 53.3969 33.2979 53.5356 33.2336 53.7054Z" fill="url(#paint1_linear_11_5)"/>
<defs>
<linearGradient id="paint0_linear_11_5" x1="0" y1="40.5" x2="88" y2="40.5" gradientUnits="userSpaceOnUse">
<stop stop-color="#0B3F66"/>
<stop offset="1" stop-color="#008EEC"/>
</linearGradient>
<linearGradient id="paint1_linear_11_5" x1="23" y1="36.5" x2="66" y2="36.5" gradientUnits="userSpaceOnUse">
<stop stop-color="#0B3F66"/>
<stop offset="1" stop-color="#008EEC"/>
</linearGradient>
</defs>
</svg>
