<svg width="88" height="81" viewBox="0 0 88 81" fill="none" xmlns="http://www.w3.org/2000/svg">
<path d="M85.5 40.5C85.5 61.2958 67.1189 78.5 44 78.5C20.8811 78.5 2.5 61.2958 2.5 40.5C2.5 19.7042 20.8811 2.5 44 2.5C67.1189 2.5 85.5 19.7042 85.5 40.5Z" stroke="url(#paint0_linear_11_14)" stroke-width="5"/>
<path fill-rule="evenodd" clip-rule="evenodd" d="M52.5608 15.0724C51.5277 15.2004 49.7971 15.6527 48.7382 16.0713C46.7391 16.8614 45.1108 17.9394 43.5336 19.5166C42.2938 20.7564 41.3883 21.9964 40.6892 23.4119C40.411 23.975 40.1582 24.4381 40.1274 24.4409C40.0966 24.4438 39.804 24.2316 39.4773 23.9694C38.7092 23.353 37.7028 22.7681 36.7216 22.3681C33.7037 21.1378 30.3691 21.2477 27.4406 22.6742C21.8233 25.4105 19.4663 32.0098 22.058 37.7452C22.7727 39.3268 24.3902 41.2609 25.8074 42.2284L26.4697 42.6804L24.6162 42.729C22.5583 42.783 22.3199 42.8466 21.6966 43.5095C21.1286 44.1136 21.0481 44.3792 21.0087 45.7774C20.97 47.1499 21.0655 47.7214 21.4055 48.1537L21.6003 48.4012L21.3201 48.891C21.0432 49.3747 21.0398 49.3989 21.0398 50.868C21.0398 52.2973 21.0499 52.3748 21.2984 52.8542L21.5571 53.353L21.2984 53.8519C21.0499 54.3313 21.0398 54.4088 21.0398 55.8381C21.0398 57.2966 21.0451 57.3349 21.3145 57.821L21.5891 58.3165L21.397 58.5867C21.0509 59.0735 20.9701 59.5593 21.0089 60.9209C21.0397 62.0053 21.0774 62.267 21.2496 62.5899C21.4895 63.0397 21.9581 63.5019 22.4277 63.7517C22.7481 63.9222 23.1854 63.9299 32.4303 63.9299C41.6752 63.9299 42.1125 63.9222 42.4329 63.7517C42.9006 63.5029 43.3699 63.0412 43.6138 62.5899C43.8006 62.2443 43.8208 62.0623 43.8208 60.7234C43.8208 59.2751 43.8144 59.2283 43.5526 58.764L43.2843 58.2884L43.5526 57.759C43.7956 57.2793 43.8238 57.1184 43.8528 56.0441C43.8873 54.7658 43.7874 54.1595 43.4683 53.7112L43.2706 53.4337L43.5457 52.8909C43.8123 52.3647 43.8208 52.3038 43.8208 50.9122C43.8208 49.5292 43.8109 49.457 43.5526 48.9471L43.2843 48.4177L43.5526 47.9421C43.8144 47.4778 43.8208 47.4309 43.8208 45.9827C43.8208 44.327 43.7402 44.0467 43.0874 43.433C42.4371 42.8216 42.2749 42.7815 40.239 42.7287L38.3802 42.6804L38.9468 42.3063C39.5117 41.9332 41.1405 40.3752 41.5822 39.7854L41.8148 39.4747L42.5786 40.4014C44.7491 43.0349 48.0319 45.0007 51.3853 45.6753L52.2094 45.841L51.4131 46.6013C50.9752 47.0194 50.2767 47.6866 49.8611 48.0839C48.7329 49.1626 48.5226 49.7988 48.988 50.726C49.3246 51.3966 49.7572 51.6637 50.5824 51.7103L51.239 51.7475L51.2405 57.2644L51.2421 62.7813L51.4563 63.1642C51.5974 63.4165 51.8161 63.6205 52.0972 63.7624C52.498 63.9647 52.6421 63.9778 54.4689 63.9778C56.5889 63.9778 56.8259 63.9325 57.287 63.4392C57.4285 63.2879 57.59 63.0429 57.646 62.8947C57.7136 62.7158 57.7478 60.7933 57.7478 57.1756V51.7258H58.2122C59.1935 51.7258 59.8551 51.266 60.1036 50.4111C60.2357 49.9564 60.2354 49.8564 60.0991 49.3877C59.9582 48.9031 59.8435 48.7699 58.3933 47.4076C57.5381 46.6042 56.8264 45.9189 56.8118 45.8846C56.7971 45.8503 57.1632 45.7487 57.6254 45.6587C58.7358 45.4425 60.2722 44.9136 61.3373 44.3808C68.2937 40.9008 71.6204 33.0031 69.2238 25.6578C67.5091 20.4022 63.0577 16.4287 57.6219 15.3012C56.2932 15.0257 53.8347 14.9145 52.5608 15.0724ZM57.177 16.8736C58.9435 17.2291 60.7353 17.9749 62.2945 19.004C63.3263 19.685 65.3053 21.6744 65.9939 22.7231C67.039 24.3147 67.7101 25.9079 68.1029 27.7304C68.4058 29.135 68.4058 31.8176 68.1029 33.2223C66.9461 38.5894 63.0754 42.6205 57.7927 43.9598C56.0351 44.4054 53.5678 44.4712 51.8611 44.118C49.9684 43.7264 47.9001 42.8235 46.3341 41.7053C45.3413 40.9964 43.9769 39.6333 43.2728 38.6471L42.7247 37.8796L43.0029 37.217C43.3452 36.4018 43.6468 35.2564 43.7699 34.3051C44.1146 31.6395 43.3813 28.6805 41.8267 26.4637L41.3957 25.8491L41.5772 25.3887C42.838 22.1901 45.2751 19.5671 48.4153 18.0294C49.8895 17.3074 51.1279 16.9514 53.2012 16.6534C53.8431 16.5613 56.3009 16.6973 57.177 16.8736ZM33.3539 23.1966C36.8244 23.5618 39.7261 25.5858 41.2396 28.6971C42.6784 31.6546 42.5242 35.0461 40.8173 37.9867C40.2053 39.0409 38.6418 40.6184 37.5521 41.2808C32.4034 44.411 25.7597 42.2634 23.3941 36.7043C22.8433 35.4101 22.6725 34.504 22.6799 32.9172C22.6858 31.6921 22.7229 31.3451 22.9335 30.5523C24.0831 26.2246 27.6983 23.3383 32.2389 23.1231C32.3968 23.1156 32.8986 23.1486 33.3539 23.1966ZM49.7288 23.2032C48.7519 23.4065 47.8836 24.1225 47.4233 25.1046C47.2166 25.5456 47.171 25.781 47.171 26.4103C47.1709 27.0849 47.2091 27.2556 47.4856 27.8171C48.5096 29.8973 51.2134 30.2953 52.7677 28.5946C53.427 27.8733 53.6625 27.2082 53.6097 26.2169C53.5582 25.2511 53.2762 24.6651 52.5384 23.9906C51.784 23.3013 50.7074 22.9995 49.7288 23.2032ZM60.6647 23.2533C60.2018 23.4819 47.2419 36.5064 47.1658 36.8195C47.0225 37.4095 47.5602 37.9473 48.1502 37.804C48.4728 37.7256 61.5007 24.7516 61.7192 24.291C61.9217 23.8642 61.7556 23.4182 61.3274 23.2393C60.947 23.0804 61.0182 23.0788 60.6647 23.2533ZM32.1295 24.8305C31.8903 24.9242 31.6167 25.283 31.6167 25.5028C31.6167 25.6037 31.4404 25.711 31.097 25.8192C30.3557 26.0529 29.481 26.7307 29.0399 27.4132C27.9733 29.0634 28.1834 31.1713 29.5506 32.5387C30.057 33.045 31.0784 33.6348 31.4492 33.6349C31.6043 33.635 31.6167 33.8152 31.6167 36.0778V38.5206L31.2459 38.3314C30.5618 37.9824 30.147 37.343 29.9959 36.4047C29.878 35.6723 29.6623 35.4154 29.1656 35.4154C28.8987 35.4154 28.7597 35.481 28.5776 35.6926C28.3618 35.9435 28.3436 36.0305 28.3851 36.6116C28.4921 38.1062 29.6221 39.5493 31.0698 40.0399C31.4328 40.1629 31.5769 40.2634 31.5984 40.4084C31.6405 40.6915 32.0808 41.1011 32.3431 41.1011C32.7329 41.1011 33.0379 40.8941 33.1831 40.5313C33.2992 40.241 33.3972 40.1574 33.7387 40.0571C34.7116 39.7714 35.6477 38.9191 36.1475 37.8639C36.4278 37.2723 36.4505 37.1493 36.4505 36.2194C36.4505 35.2771 36.4303 35.1712 36.1261 34.5224C35.6328 33.47 34.7121 32.6593 33.6028 32.3005L33.2439 32.1844V29.7988C33.2439 28.4868 33.2675 27.4133 33.2965 27.4133C33.3255 27.4133 33.4654 27.4743 33.6076 27.5488C34.2364 27.8782 34.8647 28.8508 34.869 29.5015C34.8729 30.0969 35.1955 30.4683 35.713 30.4733C36.2024 30.4781 36.4983 30.1238 36.4983 29.5336C36.4983 27.9519 35.1913 26.2107 33.6879 25.7899C33.3685 25.7005 33.2439 25.6168 33.2439 25.4919C33.2439 25.0629 32.5648 24.6598 32.1295 24.8305ZM50.7869 24.8347C51.5859 25.0566 52.0727 25.7868 51.9786 26.622C51.8858 27.4447 51.2494 27.9877 50.3777 27.9877C49.6901 27.9877 49.1479 27.6373 48.9081 27.0383C48.7061 26.5331 48.7114 26.2149 48.9303 25.7383C49.1458 25.2691 49.3917 25.042 49.8687 24.8719C50.3183 24.7116 50.3403 24.7106 50.7869 24.8347ZM31.6167 29.6627C31.6167 31.13 31.5827 31.9121 31.519 31.9121C31.4652 31.9121 31.2574 31.8038 31.0571 31.6712C29.8744 30.8886 29.6348 29.2344 30.5493 28.166C30.8607 27.8022 31.3738 27.4146 31.5449 27.4137C31.5843 27.4135 31.6167 28.4256 31.6167 29.6627ZM57.3249 31.5752C54.6845 32.6607 54.6432 36.3209 57.2577 37.5465C58.0246 37.906 59.0982 37.906 59.8651 37.5465C60.6164 37.1943 61.1406 36.6859 61.4954 35.9651C61.8727 35.1986 61.9183 34.2799 61.6205 33.4436C61.3545 32.6967 60.4791 31.8154 59.7303 31.5409C58.9587 31.258 58.0657 31.2707 57.3249 31.5752ZM59.2151 33.0956C60.126 33.4762 60.4667 34.7331 59.8783 35.542C59.6497 35.8564 58.9424 36.2201 58.5651 36.2173C57.7122 36.2112 56.9742 35.4715 56.9676 34.6162C56.9582 33.4031 58.1009 32.63 59.2151 33.0956ZM33.6294 34.0804C34.3768 34.5803 34.7611 35.1813 34.8435 35.9793C34.9399 36.9142 34.4561 37.8495 33.6391 38.3074L33.2439 38.5289V36.2256C33.2439 34.9587 33.2774 33.9222 33.3183 33.9222C33.3592 33.9222 33.4993 33.9934 33.6294 34.0804ZM42.0105 44.672C42.2229 44.9189 42.2414 45.0211 42.2414 45.9449C42.2414 46.9874 42.1216 47.4295 41.8064 47.5505C41.604 47.6282 23.2566 47.6282 23.0542 47.5505C22.7378 47.429 22.6192 46.9878 22.6192 45.9323C22.6192 44.9345 22.6245 44.9097 22.9004 44.6339L23.1815 44.3527L32.4805 44.378L41.7795 44.4034L42.0105 44.672ZM56.5485 47.9129C57.7243 49.0105 58.5136 49.8179 58.5136 49.923C58.5136 50.0815 58.4214 50.0986 57.5694 50.0986C56.6769 50.0986 56.6115 50.1124 56.3729 50.3509L56.1206 50.6033V56.4769V62.3506H54.4934H52.8662V56.5171V50.6836L52.6355 50.4151C52.4168 50.1604 52.3538 50.144 51.4151 50.0986C50.6534 50.0618 50.4254 50.0198 50.4254 49.9168C50.4254 49.7596 54.2945 46.0888 54.4666 46.0827C54.5308 46.0804 55.4676 46.9039 56.5485 47.9129ZM41.7186 49.3761C41.9144 49.4579 42.0904 49.618 42.1463 49.7652C42.2696 50.0893 42.2696 51.7351 42.1463 52.0592C41.9406 52.6005 42.1829 52.5873 32.4303 52.5873C22.8517 52.5873 22.9742 52.5931 22.7225 52.1231C22.6657 52.0168 22.6192 51.4591 22.6192 50.8836C22.6192 49.9788 22.6453 49.804 22.8125 49.5915C22.9188 49.4562 23.1019 49.3271 23.2193 49.3044C23.3367 49.2818 27.4723 49.2573 32.4094 49.2502C40.0602 49.2391 41.4352 49.2576 41.7186 49.3761ZM41.8064 54.274C42.1216 54.3949 42.2414 54.8371 42.2414 55.8795C42.2414 56.8033 42.2229 56.9055 42.0105 57.1525L41.7794 57.4211H32.4303H23.0812L22.8425 57.1436C22.6123 56.876 22.6049 56.8255 22.6354 55.723C22.6649 54.6564 22.6821 54.5678 22.893 54.3972C23.1119 54.2203 23.4081 54.2145 32.3852 54.2145C37.4816 54.2145 41.7212 54.2413 41.8064 54.274ZM41.8669 59.2189C42.1675 59.4497 42.2414 59.7561 42.2414 60.7723C42.2414 61.7706 42.2358 61.7966 41.9617 62.0708L41.6819 62.3506H32.4303H23.1787L22.8989 62.0708C22.6248 61.7966 22.6192 61.7706 22.6192 60.7723C22.6192 59.7561 22.693 59.4497 22.9937 59.2189C23.2145 59.0493 41.6461 59.0493 41.8669 59.2189Z" fill="url(#paint1_linear_11_14)"/>
<defs>
<linearGradient id="paint0_linear_11_14" x1="0" y1="40.5" x2="88" y2="40.5" gradientUnits="userSpaceOnUse">
<stop stop-color="#0B3F66"/>
<stop offset="1" stop-color="#008EEC"/>
</linearGradient>
<linearGradient id="paint1_linear_11_14" x1="21" y1="39.4889" x2="69.9969" y2="39.4889" gradientUnits="userSpaceOnUse">
<stop stop-color="#0B3F66"/>
<stop offset="1" stop-color="#008EEC"/>
</linearGradient>
</defs>
</svg>
