<svg width="88" height="81" viewBox="0 0 88 81" fill="none" xmlns="http://www.w3.org/2000/svg">
<path d="M85.5 40.5C85.5 61.2958 67.1189 78.5 44 78.5C20.8811 78.5 2.5 61.2958 2.5 40.5C2.5 19.7042 20.8811 2.5 44 2.5C67.1189 2.5 85.5 19.7042 85.5 40.5Z" stroke="url(#paint0_linear_11_22)" stroke-width="5"/>
<path fill-rule="evenodd" clip-rule="evenodd" d="M47.6622 37.2461L47.641 55.4923L46.9499 55.5166L46.2589 55.541L46.236 48.2518L46.2133 40.9625L41.8269 32.2109C39.1027 26.7757 37.3782 23.4259 37.2761 23.3713C37.0239 23.2363 24.5041 23.2554 24.3274 23.391C24.2542 23.4473 24.1502 23.5759 24.0964 23.6767C24.0231 23.8145 23.9991 27.9517 24 40.2641C24.0011 54.5983 24.0172 56.7359 24.1281 57.2062C24.4717 58.6638 25.6677 59.9285 27.1067 60.3558C27.7473 60.5461 28.8867 60.5307 29.5601 60.3228C30.9366 59.8976 32.2057 58.5563 32.442 57.277L32.5002 56.962H35.0862H37.6722L37.8448 57.5301C38.2492 58.8615 39.3726 59.939 40.7904 60.3555C41.375 60.5272 42.4828 60.5276 43.0695 60.3563C44.4505 59.953 45.583 58.8441 46.0041 57.4829L46.1524 57.004L56.5761 56.9827L67 56.9613V56.2527V55.5439L66.6431 55.518L66.2861 55.4923L66.2426 49.9071C66.2187 46.8353 66.1904 44.3107 66.1796 44.2967C66.1689 44.2828 66.029 44.2167 65.8689 44.1498C65.6651 44.0646 65.2489 44.0281 64.4831 44.0281H63.3886V38.5231V33.0181L63.1824 32.812C62.9824 32.612 62.9397 32.6059 61.7546 32.6059H60.533V27.0773V21.5489L60.3163 21.3452L60.0996 21.1417L54.6052 21.1189L49.1108 21.0961V20.0481V19H48.3971H47.6835L47.6622 37.2461ZM53.3941 23.9552V25.383H54.108H54.8219V23.9552V22.5274H56.9636H59.1052V27.5667V32.6059H54.108H49.1108V27.5667V22.5274H51.2525H53.3941V23.9552ZM40.6073 32.9839L44.7435 41.2567V47.0937C44.7435 50.3041 44.7221 52.9307 44.6959 52.9307C44.6698 52.9307 44.528 52.8405 44.3809 52.7303C43.3407 51.9506 41.7203 51.7285 40.467 52.1938C39.1549 52.6809 38.0954 53.8398 37.766 55.1479L37.668 55.5367L35.1121 55.5144L32.5563 55.4923L32.3466 54.8697C31.863 53.433 30.7529 52.433 29.2059 52.0406C28.1725 51.7784 26.8673 52.0343 25.9095 52.6868L25.4265 53.0159V38.8635V24.7111H30.9488H36.4712L40.6073 32.9839ZM27.132 26.3415L26.8963 26.5443V32.9418V39.3393L27.132 39.5421L27.3676 39.7447H34.338C40.2913 39.7447 41.343 39.7268 41.546 39.6219C41.8042 39.4883 41.888 39.3408 41.888 39.0194C41.888 38.7544 36.1647 26.5809 35.9212 26.3279L35.7393 26.1389H31.5535H27.3676L27.132 26.3415ZM37.5381 32.9326C38.9143 35.8608 40.0402 38.2702 40.0402 38.2867C40.0402 38.3034 37.3947 38.317 34.1612 38.317H28.2821V32.9409V27.5647L31.659 27.5867L35.036 27.6086L37.5381 32.9326ZM54.8219 35.4614V36.8892H55.5358H56.2497V35.4614V34.0336H59.1052H61.9608V39.0308V44.0281H55.5358H49.1108V39.0308V34.0336H51.9664H54.8219V35.4614ZM56.2497 46.8836V48.3114H56.9636H57.6775V46.8836V45.4558H61.2469H64.8163V50.495V55.5342H56.9636H49.1108V50.495V45.4558H52.6803H56.2497V46.8836ZM28.9993 53.4796C31.1447 54.0326 31.8682 56.6649 30.3045 58.2285C29.6606 58.8725 29.0822 59.0915 28.1561 59.0422C27.3649 59 26.7954 58.7509 26.255 58.2104C25.7192 57.6747 25.4732 57.0573 25.4732 56.2481C25.4732 55.6908 25.513 55.4903 25.7062 55.0723C25.9875 54.464 26.4224 53.9946 26.959 53.72C27.6934 53.3442 28.2292 53.2811 28.9993 53.4796ZM42.4927 53.4449C43.0987 53.5733 43.4799 53.7799 43.9146 54.2152C44.4726 54.7743 44.693 55.2792 44.7284 56.0802C44.7694 57.0103 44.5486 57.5903 43.9104 58.2285C42.4419 59.697 39.9527 59.1509 39.232 57.2022C39.0117 56.6068 39.0427 55.6683 39.3012 55.1036C39.7738 54.0715 40.7369 53.4158 41.8628 53.3598C41.9645 53.3547 42.2479 53.393 42.4927 53.4449ZM41.6959 55.181C41.5672 55.197 41.331 55.3409 41.171 55.5009C40.9194 55.7525 40.8801 55.8466 40.8801 56.1976C40.8801 57.2957 42.2478 57.6995 42.8152 56.7689C43.2941 55.9835 42.6454 55.0632 41.6959 55.181ZM27.571 55.495C27.2825 55.7835 27.2276 55.9418 27.2672 56.3714C27.3341 57.0968 28.2165 57.5339 28.8162 57.1386C29.3297 56.8 29.4992 56.2722 29.2496 55.7895C29.0422 55.3883 28.7285 55.1983 28.2735 55.1983C27.921 55.1983 27.8288 55.2373 27.571 55.495Z" fill="url(#paint1_linear_11_22)"/>
<defs>
<linearGradient id="paint0_linear_11_22" x1="0" y1="40.5" x2="88" y2="40.5" gradientUnits="userSpaceOnUse">
<stop stop-color="#0B3F66"/>
<stop offset="1" stop-color="#008EEC"/>
</linearGradient>
<linearGradient id="paint1_linear_11_22" x1="24" y1="39.7446" x2="67" y2="39.7446" gradientUnits="userSpaceOnUse">
<stop stop-color="#0B3F66"/>
<stop offset="1" stop-color="#008EEC"/>
</linearGradient>
</defs>
</svg>
