<svg width="88" height="81" viewBox="0 0 88 81" fill="none" xmlns="http://www.w3.org/2000/svg">
<path d="M85.5 40.5C85.5 61.2958 67.1189 78.5 44 78.5C20.8811 78.5 2.5 61.2958 2.5 40.5C2.5 19.7042 20.8811 2.5 44 2.5C67.1189 2.5 85.5 19.7042 85.5 40.5Z" stroke="url(#paint0_linear_11_29)" stroke-width="5"/>
<path fill-rule="evenodd" clip-rule="evenodd" d="M34.5717 17.153C33.0522 17.5613 31.9665 18.8521 31.7736 20.4798C31.7254 20.8861 31.7002 24.8622 31.7143 29.8146L31.7388 38.4416H32.5027H33.2665L33.3114 29.2754L33.3564 20.1092L33.6055 19.6854C33.7425 19.4523 33.9934 19.1558 34.1631 19.0264C34.8245 18.5219 34.4988 18.5366 45.0081 18.5366H54.6992L54.702 20.3564C54.7035 21.3573 54.7429 22.4695 54.7894 22.8281C54.9347 23.9462 55.5288 24.9112 56.471 25.5594C57.2401 26.0886 57.4147 26.1188 60.0012 26.1715L62.3826 26.22L62.4054 41.2709C62.4311 58.3017 62.488 56.9468 61.7144 57.7204C60.9772 58.4576 61.1913 58.4365 54.4582 58.4365H48.5884V59.2003V59.9642H56.0732C64.1047 59.9642 64.0583 59.9666 64.9624 59.5053C65.4809 59.2409 66.217 58.5214 66.4986 58.0039C67.0419 57.0058 67.0107 58.1923 67.0107 38.517C67.0107 25.5359 66.9825 20.3898 66.9097 20.0462C66.6182 18.6729 65.4917 17.5039 64.1035 17.1343C63.3877 16.9437 35.2844 16.9615 34.5717 17.153ZM64.135 18.7489C64.5741 18.9824 65.0147 19.4159 65.2438 19.8396L65.438 20.1991V38.4865V56.774L65.2389 57.1463C64.9608 57.6663 64.3654 58.1471 63.7938 58.3133C63.5293 58.3902 63.2953 58.4355 63.2738 58.414C63.2524 58.3925 63.3569 58.1361 63.506 57.8441C63.6553 57.552 63.8178 57.0899 63.8671 56.817C63.9251 56.4959 63.9486 50.8095 63.9335 40.7093L63.9103 25.0976L60.6303 21.8141L57.3502 18.5305L60.5854 18.556C63.5387 18.5793 63.8479 18.5961 64.135 18.7489ZM59.7549 24.6287C57.9991 24.6593 57.6484 24.5892 57.0873 24.0953C56.3869 23.4788 56.3168 23.2259 56.3168 21.3171V19.6612L58.7889 22.1318L61.2609 24.6025L59.7549 24.6287ZM37.8945 21.6253V22.3776L37.4518 22.4364C36.8341 22.5183 36.2326 22.9533 35.8819 23.5714C35.6422 23.9941 35.6034 24.1517 35.6053 24.6923C35.608 25.3901 35.7504 25.7513 36.2196 26.2504C36.7585 26.8235 37.078 26.9253 38.5093 26.9797C39.7261 27.026 39.8077 27.0407 39.9696 27.241C40.2143 27.5436 40.1921 28.0195 39.9205 28.291C39.7023 28.5093 39.683 28.5116 38.0334 28.5116H36.3668V29.2754V30.0393H37.1307H37.8945V30.8031V31.567H38.6584H39.4222V30.8134V30.0597L39.8242 29.9994C40.3706 29.9175 41.0218 29.4589 41.3506 28.9247C41.5721 28.565 41.6272 28.3671 41.6515 27.8463C41.6775 27.2897 41.6491 27.1457 41.4279 26.7149C41.146 26.1656 40.6004 25.697 40.0715 25.5502C39.8874 25.499 39.2639 25.457 38.6859 25.4567C37.7244 25.4562 37.6154 25.4389 37.4052 25.254C37.0534 24.9444 37.0185 24.5614 37.3104 24.2144L37.5511 23.9285H39.2505H40.9499V23.1646V22.4008H40.1861H39.4222V21.6369V20.8731H38.6584H37.8945V21.6253ZM44.0053 23.1646V23.9285H48.5884H53.1715V23.1646V22.4008H48.5884H44.0053V23.1646ZM44.0053 26.22V26.9839H46.2969H48.5884V26.22V25.4562H46.2969H44.0053V26.22ZM50.1161 26.22V26.9839H51.6438H53.1715V26.22V25.4562H51.6438H50.1161V26.22ZM44.0053 29.2754V30.0393H48.5884H53.1715V29.2754V28.5116H48.5884H44.0053V29.2754ZM35.5581 33.8585V34.6224H43.6009H51.6438V35.7906V36.9588H43.6009H35.5581V37.7227V38.4865H43.6009H51.6438V39.6548V40.823H47.8246H44.0053V41.5869V42.3507H47.8246H51.6438V43.474V44.5973H50.1161H48.5884V45.3612V46.125H50.1161H51.6438V47.2933V48.4615H50.1161H48.5884V49.2254V49.9892H50.1161H51.6438V51.1575V52.3257H49.3523H47.0607V53.0895V53.8534H53.5759H60.0911V53.0906V52.3278L56.6538 52.3043L53.2165 52.2808L53.1913 51.135L53.1661 49.9892H56.6286H60.0911V49.2254V48.4615H56.6286H53.1661L53.1913 47.3157L53.2165 46.17L56.6538 46.1464L60.0911 46.1229V45.3601V44.5973H56.6313H53.1715V43.474V42.3507H56.6313H60.0911V41.5879V40.8252L56.6538 40.8016L53.2165 40.7781L53.1913 39.6323L53.1661 38.4865H56.6286H60.0911V37.7227V36.9588H56.6286H53.1661L53.1913 35.8131L53.2165 34.6673L56.6538 34.6438L60.0911 34.6202V33.8574V33.0947H47.8246H35.5581V33.8585ZM27.5622 41.9928C22.7333 43.5097 21.2825 43.9987 21.1593 44.1509C21.0165 44.3273 21 44.5752 21 46.5434V48.7393L21.2206 48.9598C21.4061 49.1454 21.5274 49.1804 21.9845 49.1804H22.5277V53.8085V58.4365H22.0408C21.0436 58.4365 21 58.5343 21 60.7754V62.4942L21.2627 62.7569L21.5253 63.0196H33.9844C43.2844 63.0196 46.4932 62.9931 46.6398 62.9151C47.0374 62.7033 47.0549 62.6103 47.0579 60.7015C47.0607 58.8831 47.0601 58.877 46.8401 58.6571C46.6546 58.4715 46.5333 58.4365 46.0763 58.4365H45.533V53.8085V49.1804H46.0763C46.5333 49.1804 46.6546 49.1454 46.8401 48.9598L47.0607 48.7393V46.5726C47.0607 44.3596 47.0311 44.1448 46.7017 43.9686C46.3977 43.8058 34.1794 40.0138 33.9881 40.0229C33.8878 40.0275 30.9961 40.9141 27.5622 41.9928ZM39.8491 43.4012L45.533 45.1743V46.4135V47.6527H34.0304H22.5277L22.528 46.4171L22.5283 45.1815L28.167 43.4144C31.2683 42.4425 33.8866 41.6429 33.9854 41.6377C34.0843 41.6325 36.7229 42.4261 39.8491 43.4012ZM33.5242 43.1674C33.1501 43.2759 32.6176 43.8781 32.5427 44.2774C32.3462 45.3245 33.1176 46.1932 34.1666 46.1062C35.4527 45.9995 36.012 44.5234 35.1255 43.5753C34.6962 43.1161 34.1666 42.9812 33.5242 43.1674ZM25.5831 53.8085V58.4365H24.8192H24.0554V53.8085V49.1804H24.8192H25.5831V53.8085ZM28.6385 53.8085V58.4365H27.8746H27.1108V53.8684C27.1108 51.3559 27.1378 49.2733 27.1707 49.2404C27.2036 49.2074 27.5474 49.1804 27.9346 49.1804H28.6385V53.8085ZM31.6939 53.8121V58.4438L30.9525 58.4176L30.2111 58.3916L30.1878 53.8983C30.1749 51.427 30.1837 49.3546 30.2073 49.2928C30.2368 49.2158 30.4777 49.1804 30.9722 49.1804H31.6939V53.8121ZM34.7942 53.8085V58.3916L34.0528 58.4176L33.3114 58.4438V53.8085V49.1732L34.0528 49.1993L34.7942 49.2254V53.8085ZM37.8729 53.8309L37.8962 58.4365H37.1315H36.3668V53.8049V49.1732L37.1082 49.1993L37.8496 49.2254L37.8729 53.8309ZM40.9499 53.8085V58.4365H40.1861H39.4222V53.8085V49.1804H40.1861H40.9499V53.8085ZM44.0053 53.8085V58.4365H43.2415H42.4776V53.8085V49.1804H43.2415H44.0053V53.8085ZM47.0607 56.1449V56.9088H53.5759H60.0911V56.1449V55.3811H53.5759H47.0607V56.1449ZM45.533 60.728V61.4919H34.0304H22.5277V60.728V59.9642H34.0304H45.533V60.728Z" fill="url(#paint1_linear_11_29)"/>
<defs>
<linearGradient id="paint0_linear_11_29" x1="0" y1="40.5" x2="88" y2="40.5" gradientUnits="userSpaceOnUse">
<stop stop-color="#0B3F66"/>
<stop offset="1" stop-color="#008EEC"/>
</linearGradient>
<linearGradient id="paint1_linear_11_29" x1="21" y1="40.0098" x2="67.011" y2="40.0098" gradientUnits="userSpaceOnUse">
<stop stop-color="#0B3F66"/>
<stop offset="1" stop-color="#008EEC"/>
</linearGradient>
</defs>
</svg>
