<svg width="88" height="81" viewBox="0 0 88 81" fill="none" xmlns="http://www.w3.org/2000/svg">
<path fill-rule="evenodd" clip-rule="evenodd" d="M64.8594 25.3271C61.6202 27.8396 59.1683 29.8323 59.0708 30.0318C58.9498 30.2792 58.9399 30.4497 59.0358 30.629C59.1558 30.8533 59.0796 30.9162 58.3188 31.2208C57.066 31.7222 55.8715 31.8965 54.8489 31.7272C54.3867 31.6505 52.7744 31.1844 51.2662 30.6914C48.8042 29.8865 48.4174 29.795 47.4787 29.795C46.5374 29.795 46.3278 29.845 45.3748 30.2965L44.3164 30.7979L43.4146 30.5167C42.2458 30.1523 41.7204 30.1568 38.6576 30.5574C36.3038 30.8653 34.451 31.0331 31.1763 31.235L29.9024 31.3136L30.0242 30.9931C30.0913 30.8167 30.1143 30.5505 30.0752 30.4013C30.0331 30.2401 27.6973 28.3439 24.3165 25.7264C18.3693 21.1216 18.1842 21.0051 17.6555 21.5337C17.5169 21.6722 16.5087 25.8244 14.7229 33.6108C13.2262 40.1372 12.0009 45.6063 12 45.7643C11.9979 46.154 12.4075 46.437 15.3397 48.0726C18.3159 49.7328 18.4557 49.7604 19.0941 48.8126L19.5319 48.1624L20.2663 48.7016L21.0007 49.2407L20.7295 49.7726C20.3532 50.5101 20.2725 51.7389 20.5461 52.5628C20.9643 53.822 22.217 54.8523 23.5522 55.0354C24.1203 55.1133 24.1281 55.1213 24.2172 55.7189C24.5119 57.6937 26.0316 59.0564 27.9398 59.0564H28.8055L29.033 59.8279C29.3353 60.854 30.3116 61.8629 31.329 62.2008C32.1342 62.4682 33.2966 62.4206 33.9528 62.0933C34.3256 61.9073 34.3644 61.9089 34.4329 62.1129C35.0457 63.941 36.5944 65.0249 38.3371 64.8449C39.242 64.7516 39.8787 64.4069 41.0648 63.3683C41.7807 62.7416 42.1172 62.5266 42.2833 62.59C42.4095 62.6382 43.4392 63.2104 44.5715 63.8614C45.7039 64.5123 46.8506 65.1237 47.1198 65.2197C48.193 65.6028 49.6157 65.3256 50.5112 64.5591C51.0871 64.0663 51.7258 62.9436 51.7258 62.4247C51.7258 62.1561 51.7701 62.1226 52.0199 62.2019C52.7294 62.4276 53.9293 62.4273 54.6097 62.2012C55.7813 61.8122 56.7809 60.571 56.9205 59.3321L56.9803 58.8017L57.7234 58.7847C59.592 58.7417 61.0716 57.3307 61.2552 55.4169L61.331 54.6273L61.9553 54.5383C63.5628 54.3092 64.9082 52.7975 64.967 51.1543L64.9901 50.5091L66.9323 48.5811C68.0005 47.5206 68.8975 46.7119 68.9256 46.7837C69.0606 47.1283 70.3732 49.0041 70.5565 49.1144C70.8914 49.3158 71.2439 49.1598 74.1379 47.5284C76.2187 46.3552 76.9099 45.9024 76.9969 45.6553C77.146 45.2315 71.8309 21.8686 71.471 21.366C70.9342 20.6164 70.9291 20.6194 64.8594 25.3271ZM72.6972 34.1581C74.0376 40.008 75.0865 44.8407 75.0282 44.8977C74.9698 44.9547 74.0874 45.4705 73.0674 46.0439L71.2129 47.0864L70.6498 46.151C70.3401 45.6365 70.0434 45.1098 69.9907 44.9806C69.9377 44.8515 69.7528 44.5574 69.5795 44.3272C69.4064 44.097 67.4299 40.9171 65.1876 37.2608C61.6293 31.4589 61.1346 30.5888 61.2996 30.4237C61.5424 30.1809 70.2067 23.4679 70.2373 23.4989C70.2498 23.5118 71.3568 28.3084 72.6972 34.1581ZM23.4807 27.3676C25.9343 29.2669 27.9417 30.8581 27.9417 30.9035C27.9417 30.9943 18.0488 47.117 17.898 47.272C17.8275 47.3444 14.2331 45.4543 13.9776 45.2104C13.9413 45.1758 18.0957 26.8308 18.6904 24.3992C18.7658 24.0908 18.8708 23.8555 18.9237 23.8764C18.9765 23.8972 21.0271 25.4683 23.4807 27.3676ZM50.8773 32.4743C52.414 32.9775 54.1156 33.4511 54.6587 33.5267C55.9686 33.7088 57.2584 33.5235 58.8635 32.9224C59.5508 32.6648 60.1271 32.4734 60.144 32.4968C60.1908 32.5616 67.6984 44.8072 67.7702 44.9359C67.8047 44.9977 67.0184 45.8644 66.0228 46.8619L64.2127 48.6755L63.6865 48.1725C62.9861 47.5027 49.0705 36.19 48.7096 35.9968C48.4686 35.8678 48.222 35.9434 47.0212 36.5135C45.1399 37.4069 43.8958 37.728 42.2514 37.7447C41.2394 37.7549 40.7382 37.6928 40.0298 37.4693C38.9221 37.1199 38.0696 36.6506 38.0696 36.3903C38.0696 36.2715 39.7376 35.3154 42.4474 33.8809C46.3556 31.8121 46.8927 31.5632 47.4542 31.5613C47.8843 31.5599 48.9673 31.8487 50.8773 32.4743ZM41.7287 32.1582C41.5849 32.2674 40.497 32.8644 39.311 33.4847C38.1251 34.1051 36.9983 34.7684 36.8072 34.9589C36.3091 35.4553 36.0927 36.259 36.2846 36.8996C36.5218 37.691 36.898 38.0565 38.0475 38.6123C39.6483 39.3862 40.6112 39.5703 42.6434 39.4911C44.5123 39.4182 45.3339 39.2253 47.2151 38.4173C48.2226 37.9845 48.3642 37.954 48.5632 38.1275C48.6855 38.234 51.8435 40.8042 55.581 43.8393C59.3185 46.8743 62.5343 49.536 62.7273 49.7543C63.1428 50.2242 63.297 50.9565 63.0939 51.4942C62.7489 52.4067 61.7462 52.98 60.9128 52.741C60.6908 52.6774 58.0477 50.8482 55.0393 48.6763C52.031 46.5043 49.38 44.6358 49.1483 44.5241C48.8115 44.3617 48.6603 44.3513 48.3942 44.4726C47.9448 44.6774 47.7527 45.2031 47.9674 45.6408C48.0669 45.8436 50.2528 47.5082 53.4861 49.8433C56.8317 52.2594 58.9519 53.8765 59.1381 54.1539C59.4804 54.664 59.5216 55.3218 59.2448 55.8571C58.6592 56.9895 57.355 57.2701 56.2867 56.4937C55.9704 56.2638 53.6573 54.6172 51.1465 52.8346C47.4307 50.1964 46.5021 49.5934 46.1554 49.5934C45.6614 49.5934 45.3224 49.9739 45.3224 50.5286C45.3224 50.9806 45.4372 51.0722 50.45 54.6172C52.6593 56.1796 54.6146 57.6336 54.7952 57.8482C55.6698 58.8876 54.8181 60.5707 53.4173 60.5707C52.7019 60.5707 53.185 60.8697 47.3006 56.7864C43.1979 53.9394 42.9247 53.8069 42.427 54.4213C42.115 54.8067 42.1211 55.2244 42.4437 55.5707C42.5854 55.7228 44.2016 56.8847 46.0352 58.1527C47.8686 59.4207 49.486 60.607 49.6292 60.7891C50.2427 61.5691 50.0168 62.6871 49.1255 63.2807C48.337 63.8059 47.9425 63.7049 45.638 62.3872C44.4942 61.7331 43.533 61.1737 43.5021 61.144C43.4713 61.1143 43.5505 60.8711 43.678 60.6035C44.6929 58.4753 43.2139 55.8481 40.8157 55.5194C40.265 55.4439 40.2267 55.4119 40.1547 54.9667C39.9055 53.4238 38.8892 52.1391 37.621 51.7638C37.2307 51.6481 36.7776 51.5536 36.6143 51.5536C36.3722 51.5536 36.3025 51.4628 36.2375 51.0636C36.0185 49.7151 35.3523 48.7122 34.2442 48.0628C33.4139 47.5762 32.02 47.4933 31.1486 47.8787C30.804 48.0312 30.5075 48.1559 30.4897 48.1559C30.4719 48.1559 30.424 47.9941 30.3832 47.7965C30.2548 47.1738 29.5376 46.2074 28.9073 45.8078C28.0742 45.2794 27.0973 45.09 26.1841 45.2796C25.3472 45.4532 24.8337 45.7796 23.4812 46.9969C22.9326 47.4906 22.4136 47.8945 22.3278 47.8945C22.242 47.8945 21.8088 47.6196 21.365 47.2833C20.9212 46.9472 20.537 46.6564 20.511 46.6372C20.4851 46.618 22.3256 43.5764 24.6012 39.878L28.7384 33.1536L30.5291 33.0699C33.4264 32.9347 37.1878 32.604 39.4706 32.284C42.1496 31.9083 42.0503 31.9139 41.7287 32.1582ZM27.8876 47.3017C28.665 47.8111 28.9649 49.02 28.4964 49.7552C28.371 49.952 27.4906 50.787 26.5398 51.6109C24.3249 53.5302 23.7606 53.6762 22.6905 52.606C22.2469 52.1623 22.1922 52.0366 22.1962 51.471C22.1988 51.1211 22.2723 50.7068 22.3596 50.5502C22.5791 50.1566 25.6962 47.3905 26.1775 47.1623C26.6462 46.94 27.4333 47.0042 27.8876 47.3017ZM33.5036 49.729C34.3607 50.2587 34.6638 51.4658 34.1459 52.2857C34.0504 52.4368 32.7944 53.5951 31.3546 54.8598C28.5561 57.3178 28.2796 57.4786 27.3686 57.1779C26.7876 56.9861 26.1504 56.2684 26.0402 55.6815C25.8828 54.8419 26.1545 54.4064 27.6516 53.0987C28.4187 52.4285 29.5181 51.4478 30.0948 50.919C30.6715 50.3903 31.3198 49.8465 31.5354 49.7107C32.0603 49.38 32.9524 49.3884 33.5036 49.729ZM37.5944 53.7416C37.7839 53.8828 38.0475 54.2589 38.1801 54.5775C38.3807 55.059 38.3976 55.2455 38.2796 55.6834C38.1587 56.1326 37.8313 56.4826 36.0578 58.0593C34.9138 59.0762 33.7582 60.0574 33.4898 60.2396C32.2669 61.0694 30.686 60.2138 30.686 58.7221C30.686 58.4052 30.7766 58.0165 30.8873 57.8585C31.1673 57.4588 35.2984 53.8095 35.7447 53.5676C36.2137 53.3134 37.1358 53.4002 37.5944 53.7416ZM41.6201 57.8529C42.1495 58.3823 42.3199 59.148 42.0522 59.7942C41.8852 60.1973 39.5985 62.3548 38.8536 62.812C38.0803 63.2868 36.9267 62.9981 36.4381 62.2076C36.157 61.7527 36.0977 61.0516 36.2961 60.5297C36.4087 60.2334 39.0495 57.8009 39.6377 57.4516C39.7824 57.3657 40.1818 57.3192 40.5324 57.3474C41.0445 57.3886 41.2524 57.4853 41.6201 57.8529Z" fill="url(#paint0_linear_11_41)"/>
<path d="M85.5 40.5C85.5 61.2958 67.1189 78.5 44 78.5C20.8811 78.5 2.5 61.2958 2.5 40.5C2.5 19.7042 20.8811 2.5 44 2.5C67.1189 2.5 85.5 19.7042 85.5 40.5Z" stroke="url(#paint1_linear_11_41)" stroke-width="5"/>
<defs>
<linearGradient id="paint0_linear_11_41" x1="12" y1="43.1954" x2="77" y2="43.1954" gradientUnits="userSpaceOnUse">
<stop stop-color="#0B3F66"/>
<stop offset="1" stop-color="#008EEC"/>
</linearGradient>
<linearGradient id="paint1_linear_11_41" x1="0" y1="40.5" x2="88" y2="40.5" gradientUnits="userSpaceOnUse">
<stop stop-color="#0B3F66"/>
<stop offset="1" stop-color="#008EEC"/>
</linearGradient>
</defs>
</svg>
