<svg width="88" height="67" viewBox="0 0 88 67" fill="none" xmlns="http://www.w3.org/2000/svg">
<path fill-rule="evenodd" clip-rule="evenodd" d="M36.3321 0.648844C21.8993 2.68665 10.5482 9.27173 4.34272 19.2072C-2.38108 29.9723 -1.25777 41.9715 7.43914 52.2817L9.4863 54.7085L6.69138 59.5347C3.69969 64.7012 3.45222 66.4971 5.69749 66.7416C6.45859 66.8243 10.4375 65.9813 14.5398 64.8686L21.9987 62.8455L25.7488 64.1068C43.8744 70.2015 65.4492 66.4332 77.8603 55.0047C86.7046 46.8606 90.0905 35.607 86.7153 25.5727C82.2928 12.4258 69.0166 3.06195 51.3406 0.623993C45.2652 -0.214358 42.4136 -0.209793 36.3321 0.648844ZM53.6786 4.73815C60.6245 6.1141 65.9482 8.46482 71.4193 12.5739C87.0908 24.3433 87.2422 42.5811 71.7655 54.3946C64.0424 60.2899 54.8039 63.2705 44.2026 63.2868C37.8523 63.2969 33.4285 62.5397 27.1403 60.3675C22.8065 58.8703 21.7065 58.669 20.4698 59.1457C18.3466 59.9638 12.0471 61.7729 11.3213 61.7729C10.9831 61.7729 11.5948 60.2681 12.6801 58.4291C13.7654 56.5901 14.6532 54.7374 14.6532 54.3129C14.6532 53.8879 13.5686 52.4171 12.2432 51.0442C5.1305 43.6771 3.01197 33.5332 6.70072 24.5046C10.4795 15.2553 21.4457 7.3379 34.0455 4.76249C38.8802 3.77402 48.7485 3.76185 53.6786 4.73815ZM39.7507 19.8868C33.1777 21.742 29.072 28.1049 32.6787 30.8472C34.8046 32.4636 36.6656 31.4163 36.6656 28.604C36.6656 25.8044 38.448 24.0293 41.934 23.3568C46.8221 22.4135 50.0439 23.6951 51.2699 27.0718C52.2191 29.6858 51.3279 31.012 45.624 35.4685C42.8978 37.5986 40.6679 39.7779 40.6679 40.312C40.6679 42.5253 44.0905 43.2825 45.3999 41.3593C45.8275 40.7314 48.0494 38.8219 50.3374 37.1158C56.9071 32.2166 58.3079 27.4923 54.473 23.1656C51.5454 19.8624 45.001 18.4048 39.7507 19.8868ZM41.3616 45.2655C40.0796 46.4401 40.792 47.8257 42.6784 47.8257C43.9184 47.8257 44.3933 47.5204 44.5614 46.6151C44.8956 44.8202 42.8085 43.9398 41.3616 45.2655Z" fill="url(#paint0_linear_9_271)"/>
<defs>
<linearGradient id="paint0_linear_9_271" x1="0" y1="33.5" x2="88" y2="33.5" gradientUnits="userSpaceOnUse">
<stop stop-color="#0B3F66"/>
<stop offset="1" stop-color="#008EEC"/>
</linearGradient>
</defs>
</svg>
