<svg width="85" height="76" viewBox="0 0 85 76" fill="none" xmlns="http://www.w3.org/2000/svg">
<path fill-rule="evenodd" clip-rule="evenodd" d="M39.5733 0.0723201C30.9002 0.663235 22.8287 3.46983 16.1229 8.22629C8.23804 13.8192 2.79156 21.7677 0.844776 30.523C-0.683965 37.3981 -0.136181 44.2062 2.47453 50.7799C7.58569 63.6495 20.353 73.245 35.3604 75.4959C38.0368 75.8974 39.4227 75.9964 42.4158 75.9999C45.3615 76.0033 46.652 75.9234 49.0144 75.591C59.7101 74.086 69.1862 69.131 75.9132 61.5258C80.946 55.836 83.9584 49.1343 84.8702 41.5987C85.0655 39.9848 85.0347 35.6664 84.8161 34.0182C84.1757 29.1897 82.787 24.9703 80.5211 20.9691C74.3749 10.1152 62.9767 2.5756 49.6113 0.522973C46.714 0.0779488 42.3591 -0.11751 39.5733 0.0723201ZM45.8721 2.37715C53.0757 2.94546 59.6199 5.07163 65.4677 8.74367C69.5117 11.283 73.2588 14.7392 75.943 18.4059C80.2773 24.3267 82.5141 31.001 82.5141 38.0127C82.5141 46.3713 79.3054 54.3182 73.3012 60.8298C72.3082 61.9067 69.9519 64.0501 68.6539 65.0571C58.4126 73.0028 44.4256 75.7412 31.3505 72.3603C22.7432 70.1347 14.9934 65.1662 9.7881 58.5367C2.4128 49.1436 0.527739 37.2331 4.69957 26.3866C7.73909 18.4839 13.937 11.6692 22.0606 7.29775C29.1228 3.49734 37.6738 1.73031 45.8721 2.37715ZM24.3848 12.4489C23.0021 12.749 21.978 13.7261 21.7156 14.9957C21.5711 15.695 21.5582 60.2822 21.7023 60.9619C21.9206 61.9911 22.61 62.8226 23.6516 63.3133L24.1935 63.5684L42.3501 63.5921C54.0132 63.6073 60.6391 63.5839 60.8769 63.5266C61.9769 63.2614 62.9727 62.3807 63.33 61.3574C63.5282 60.7892 63.5312 60.4812 63.5238 41.1579L63.5164 21.5353L60.5265 19.0388C58.882 17.6657 56.407 15.594 55.0266 14.4349L52.5167 12.3277L38.7104 12.332C28.0747 12.3352 24.7849 12.3621 24.3848 12.4489ZM52.5433 18.2898L52.57 21.5807H56.5279H60.4858V41.1396V60.6985L60.2601 60.8397C60.0581 60.9664 58.2123 60.9811 42.5681 60.9811C26.9238 60.9811 25.078 60.9664 24.876 60.8397L24.6504 60.6985V38.0216C24.6504 16.5379 24.6597 15.3375 24.828 15.2063C24.9257 15.1302 25.0701 15.0503 25.1489 15.0286C25.2277 15.0069 31.4177 14.9913 38.9044 14.994L52.5167 14.9989L52.5433 18.2898ZM28.6095 30.296V31.2946H42.4158H56.2221V30.296V29.2974H42.4158H28.6095V30.296ZM28.6095 37.3772V38.3758H42.4158H56.2221V37.3772V36.3786H42.4158H28.6095V37.3772ZM28.5904 44.549L28.6222 45.5478H42.4221H56.2221V44.5491V43.5505L42.3904 43.5503L28.5588 43.5502L28.5904 44.549ZM28.5904 51.6305L28.5588 52.6293L42.3904 52.6291L56.2221 52.6289V51.6303V50.6317H42.4221H28.6222L28.5904 51.6305Z" fill="url(#paint0_linear_9_277)"/>
<defs>
<linearGradient id="paint0_linear_9_277" x1="0" y1="38" x2="85" y2="38" gradientUnits="userSpaceOnUse">
<stop stop-color="#0B3F66"/>
<stop offset="1" stop-color="#008EEC"/>
</linearGradient>
</defs>
</svg>
