<svg width="88" height="81" viewBox="0 0 88 81" fill="none" xmlns="http://www.w3.org/2000/svg">
<path fill-rule="evenodd" clip-rule="evenodd" d="M25.9031 14.718C25.595 14.7713 24.937 14.995 24.4408 15.2152C22.7356 15.9718 21.3654 17.6096 21.038 19.2827C20.9555 19.7037 20.9182 26.449 20.9182 40.9144V61.9343L21.1932 62.1873C21.4681 62.4405 21.4685 62.4405 23.8817 62.4405H26.2951V63.8371C26.2951 65.1825 26.3052 65.2431 26.5701 65.4868L26.845 65.7399H45.1144H63.3837L63.6586 65.4868L63.9336 65.2338V54.9435V44.6533L68.751 40.2201L73.5684 35.7869L73.3366 36.5602C73.0522 37.509 72.301 38.9922 71.6592 39.8724C71.3955 40.234 70.0172 41.6095 68.5961 42.929L66.0125 45.3281L66.6587 45.9192L67.3048 46.5102L69.908 44.0871C73.1888 41.0335 74.057 39.8828 74.8898 37.4848C75.1923 36.6137 75.5836 34.7024 75.5836 34.0961C75.5836 33.9747 75.7065 33.6962 75.8567 33.4772C77.1206 31.6342 76.3234 29.1704 74.1435 28.1826C73.4748 27.8796 73.3072 27.8475 72.3934 27.8475C70.7389 27.8475 70.5926 27.9392 66.9861 31.2356L63.9336 34.0257V30.0507V26.0759L64.5515 25.9487C65.9897 25.6524 67.6429 24.5469 68.3807 23.3882C69.8661 21.0549 69.4966 18.2095 67.4623 16.3186C66.6125 15.5288 65.3318 14.8924 64.2211 14.7083C63.3661 14.5665 26.725 14.5759 25.9031 14.718ZM29.0317 16.6417C30.0144 17.0649 30.6916 17.6677 31.1669 18.5422C31.3831 18.9401 31.56 19.329 31.56 19.4064C31.56 19.5183 31.2576 19.5473 30.0888 19.5473C29.2611 19.5473 28.4159 19.6021 28.1564 19.6727C27.5411 19.84 26.6132 20.6942 26.4314 21.2605C26.3265 21.5872 26.2951 26.1875 26.2951 41.2378V60.7907H24.5015H22.7078L22.7372 40.0917L22.7665 19.3926L23.1211 18.7039C23.5712 17.8293 24.212 17.1891 25.0479 16.779C25.9303 16.3462 26.4131 16.2482 27.4432 16.2934C28.1156 16.3229 28.4737 16.4013 29.0317 16.6417ZM64.9598 16.6845C65.9793 17.1483 66.6143 17.7454 67.1077 18.7039C67.4283 19.3267 67.4622 19.4863 67.4622 20.3721C67.4622 21.258 67.4283 21.4176 67.1077 22.0404C66.6143 22.9989 65.9793 23.596 64.9598 24.0598L64.1133 24.4449L47.8778 24.4724L31.6423 24.4999L31.8284 24.2661C33.0911 22.6811 33.4052 21.9054 33.4051 20.3721C33.4051 19.5925 33.3471 19.1308 33.198 18.7224C32.9554 18.0579 32.3175 16.9569 32.0621 16.7618C31.9641 16.6869 31.834 16.5399 31.773 16.435C31.6655 16.25 32.1346 16.2452 47.8877 16.2719L64.1133 16.2994L64.9598 16.6845ZM31.5599 21.3259C31.5597 21.6177 30.8708 22.7653 30.4339 23.2016C29.9971 23.6377 28.6064 24.3934 28.2405 24.3934C28.1189 24.3934 28.0874 24.1163 28.0874 23.0483C28.0874 21.7576 28.0985 21.693 28.3625 21.4501C28.6263 21.2072 28.6965 21.197 30.0988 21.197C31.1932 21.197 31.56 21.2294 31.5599 21.3259ZM62.1413 30.916V35.6859L60.1518 37.515L58.1624 39.3441H44.9172H31.6721V40.169V40.9939H44.0196H56.367L55.4762 41.8187L54.5853 42.6436H43.1286H31.6721V43.4685V44.2934H42.2291H52.7861L49.9116 46.9484L47.0371 49.6034L45.6276 52.2061C44.8525 53.6377 44.2182 54.9189 44.2182 55.0535C44.2182 55.1881 44.3262 55.4245 44.4582 55.5789L44.698 55.8597L43.7038 56.7791L42.7095 57.6985L43.3513 58.2892L43.9931 58.8799L44.9919 57.9647L45.9908 57.0496L46.2958 57.2704C46.4635 57.3919 46.7204 57.4913 46.8667 57.4913C47.0129 57.4913 48.4048 56.9076 49.9601 56.194L52.7877 54.8968L57.4645 50.6008L62.1413 46.3049V55.1975V64.0902H45.1144H28.0874V45.1182V26.1462H45.1144H62.1413V30.916ZM31.6721 30.2706V31.0954H45.1144H58.5567V30.2706V29.4457H45.1144H31.6721V30.2706ZM73.4666 29.7328C73.9499 29.9652 74.1231 30.1246 74.3756 30.5695C75.0101 31.6873 74.7576 32.3476 73.1304 33.8266L71.9974 34.8565L70.4032 33.3892L68.809 31.9218L69.928 30.8789C71.5348 29.3812 72.2522 29.1488 73.4666 29.7328ZM31.6721 33.5701V34.3949H45.1144H58.5567V33.5701V32.7452H45.1144H31.6721V33.5701ZM68.0249 33.5724L68.4649 33.9872L62.8394 39.1652L57.2139 44.3433L56.7382 43.9054L56.2623 43.4673L61.8618 38.3125C64.9416 35.4774 67.4891 33.1576 67.523 33.1576C67.557 33.1576 67.7828 33.3442 68.0249 33.5724ZM70.2653 35.6346L70.7053 36.0494L65.0798 41.2274L59.4543 46.4054L58.9785 45.9675L58.5027 45.5295L64.1022 40.3747C67.1819 37.5395 69.7295 35.2198 69.7634 35.2198C69.7974 35.2198 70.0232 35.4064 70.2653 35.6346ZM31.6721 36.8695V37.6944H45.1144H58.5567V36.8695V36.0447H45.1144H31.6721V36.8695ZM56.597 46.1499L58.1628 47.594L55.2233 50.2996L52.2838 53.0053L50.6881 51.5365L49.0924 50.0677L52.0034 47.3867C53.6044 45.9123 54.9407 44.7058 54.9727 44.7058C55.0049 44.7058 55.7357 45.3556 56.597 46.1499ZM49.4179 52.7398L50.7495 53.9687L48.923 54.8104L47.0964 55.6523L46.6563 55.2471L46.2161 54.842L47.1221 53.1765C47.6205 52.2605 48.0413 51.511 48.0573 51.511C48.0732 51.511 48.6855 52.0639 49.4179 52.7398ZM31.6721 56.6664V57.4913H36.6009H41.5298V56.6664V55.8415H36.6009H31.6721V56.6664ZM31.6721 59.9659V60.7907H45.1144H58.5567V59.9659V59.141H45.1144H31.6721V59.9659Z" fill="url(#paint0_linear_9_285)"/>
<path d="M85.5 40.5C85.5 61.2958 67.1189 78.5 44 78.5C20.8811 78.5 2.5 61.2958 2.5 40.5C2.5 19.7042 20.8811 2.5 44 2.5C67.1189 2.5 85.5 19.7042 85.5 40.5Z" stroke="url(#paint1_linear_9_285)" stroke-width="5"/>
<defs>
<linearGradient id="paint0_linear_9_285" x1="20.9182" y1="40.1733" x2="76.4592" y2="40.1733" gradientUnits="userSpaceOnUse">
<stop stop-color="#0B3F66"/>
<stop offset="1" stop-color="#008EEC"/>
</linearGradient>
<linearGradient id="paint1_linear_9_285" x1="0" y1="40.5" x2="88" y2="40.5" gradientUnits="userSpaceOnUse">
<stop stop-color="#0B3F66"/>
<stop offset="1" stop-color="#008EEC"/>
</linearGradient>
</defs>
</svg>
