<svg width="88" height="81" viewBox="0 0 88 81" fill="none" xmlns="http://www.w3.org/2000/svg">
<path fill-rule="evenodd" clip-rule="evenodd" d="M21.6009 15.0346C21.4243 15.0802 21.1378 15.32 21.0638 15.4842C21.004 15.617 20.9994 17.2417 21.0001 38.1224C21.0007 58.5433 21.0064 60.6296 21.0621 60.7479C21.1396 60.9126 21.2892 61.0534 21.4882 61.1488C21.6394 61.2212 21.6878 61.2234 23.3035 61.2332L24.9634 61.2432L24.9643 62.647C24.9651 63.9362 24.971 64.0623 25.0367 64.1907C25.1236 64.3608 25.3939 64.5734 25.5822 64.6198C25.7916 64.6715 45.8562 64.6667 46.0507 64.615C46.2651 64.5579 46.4714 64.3917 46.5765 64.1912C46.8184 63.7299 46.5432 63.2053 45.9929 63.0785C45.8351 63.0422 43.9757 63.0336 36.2737 63.0336H26.7496V41.5328V20.0321H44.8051H62.8607L62.8615 32.248C62.8624 44.0745 62.8647 44.4684 62.9345 44.6019C63.0855 44.891 63.4179 45.0761 63.779 45.0722C64.1319 45.0685 64.4195 44.9111 64.5667 44.641L64.6479 44.492L64.6483 31.7629C64.6486 20.2514 64.6428 19.0213 64.5874 18.9036C64.5101 18.7391 64.3604 18.5984 64.1615 18.503C64.0104 18.4306 63.9614 18.4283 62.3656 18.4186L60.7251 18.4085L60.7254 18.2117C60.7256 18.1034 60.7212 17.4717 60.7157 16.8078L60.7057 15.6009L60.5936 15.4213C60.4743 15.2302 60.2782 15.0862 60.0619 15.0311C59.89 14.9874 21.7709 14.9908 21.6009 15.0346ZM51.9594 16.6167L58.9001 16.6182V17.5146V18.411L42.2521 18.4198L25.6041 18.4286L25.444 18.5047C25.2628 18.5907 25.0932 18.7548 25.0158 18.9189C24.972 19.0115 24.9634 22.3763 24.9634 39.3248V59.6197H23.8762H22.789V38.119V16.6183L33.1467 16.6096C38.8434 16.6048 43.8451 16.6042 44.2615 16.6081C44.678 16.6121 48.142 16.6159 51.9594 16.6167ZM34.8258 24.6161C34.389 24.7346 34.1316 25.0718 34.1774 25.4652C34.2182 25.8169 34.4815 26.0866 34.8649 26.1692C34.9895 26.1961 38.0154 26.2041 45.4295 26.1972L55.8193 26.1875L56.0094 26.0831C56.611 25.7528 56.591 24.9707 55.9733 24.6773L55.8132 24.6012L45.3682 24.5954C39.6234 24.5923 34.8793 24.6015 34.8258 24.6161ZM31.7331 29.7545C31.2842 29.8186 30.9344 30.2412 30.9966 30.6443C31.0421 30.939 31.2177 31.147 31.5256 31.271L31.7003 31.3413L45.286 31.3421C55.3552 31.3426 58.91 31.3327 59.0196 31.3035C59.323 31.2228 59.5675 30.961 59.6219 30.6587C59.6815 30.3278 59.4386 29.9408 59.0852 29.8036C58.9246 29.7413 58.5034 29.7392 45.407 29.7354C37.9751 29.7333 31.8218 29.7419 31.7331 29.7545ZM31.5968 38.3912C31.0871 38.5529 30.854 39.0807 31.1002 39.5155C31.185 39.6654 31.3002 39.76 31.5256 39.8651L31.7003 39.9466H45.2905C60.1136 39.9466 59.0391 39.9618 59.3134 39.7479C59.795 39.3724 59.7009 38.6816 59.1331 38.4242L58.9584 38.345L45.3487 38.3456C34.2355 38.346 31.713 38.3544 31.5968 38.3912ZM58.5118 45.3764C57.5352 45.5619 56.6836 46.0416 56.1006 46.7346C55.5413 47.3993 55.2768 48.1274 55.2832 48.9846C55.2887 49.7183 55.5629 50.4415 56.0699 51.0591L56.2565 51.2864L56.2557 53.4443C56.2552 54.6312 56.2383 55.7541 56.2179 55.9396C56.1715 56.3635 56.0074 56.8225 55.7654 57.2058C55.4489 57.7068 54.7377 58.2801 54.1441 58.5126C53.6989 58.687 53.4117 58.7298 52.4933 58.7588C51.903 58.7774 51.5463 58.8041 51.3933 58.8412C50.5158 59.0539 49.8311 59.6642 49.5915 60.4473C49.5303 60.6472 49.5229 60.8526 49.5229 62.3439C49.5229 63.6223 49.5347 64.0459 49.573 64.1419C49.6307 64.2862 49.8388 64.4888 50.0198 64.5767C50.1371 64.6337 50.6595 64.6376 59.2636 64.646C65.2156 64.6518 68.4329 64.643 68.5265 64.6206C68.71 64.5767 68.9768 64.374 69.0742 64.2045C69.1464 64.0789 69.1502 63.9897 69.1514 62.3719C69.1528 60.5164 69.1492 60.4802 68.9222 60.0507C68.617 59.4734 68.0428 59.0426 67.3263 58.8537C67.1305 58.8021 66.8771 58.7805 66.2 58.7578C65.7195 58.7417 65.2827 58.7181 65.2293 58.7054C64.431 58.5145 63.9389 58.2648 63.4196 57.7872C62.9818 57.3845 62.7276 56.9792 62.5391 56.3832C62.458 56.1269 62.4553 56.0519 62.4427 53.6957L62.4297 51.2718L62.6231 51.0425C62.8495 50.774 63.0847 50.3629 63.2202 49.9986C63.5113 49.2162 63.4462 48.1955 63.0562 47.4302C62.5145 46.367 61.355 45.5616 60.0743 45.3588C59.6489 45.2914 58.9155 45.2997 58.5118 45.3764ZM59.9184 46.9831C60.2939 47.0643 60.6024 47.2266 60.9237 47.5119C61.3862 47.9226 61.5793 48.3352 61.5793 48.9124C61.5793 49.4885 61.3877 49.8951 60.9206 50.3104C60.4835 50.6988 59.9629 50.8943 59.3661 50.8941C58.2041 50.8937 57.2797 50.1917 57.1137 49.1839C56.9809 48.377 57.4655 47.5324 58.2754 47.1593C58.8319 46.9029 59.3106 46.8515 59.9184 46.9831ZM31.4932 47.0193C30.813 47.3204 30.8203 48.1292 31.5061 48.4585L31.6615 48.5331L41.7376 48.5421C49.0081 48.5487 51.8649 48.5406 51.9975 48.513C52.5136 48.4056 52.7943 47.9505 52.6445 47.4641C52.5895 47.2855 52.2959 47.0293 52.0808 46.972C51.9563 46.9389 49.7038 46.9296 41.8087 46.9296H31.6961L31.4932 47.0193ZM58.5507 52.4537C59.03 52.5431 59.8922 52.5269 60.3271 52.4204C60.4819 52.3825 60.6081 52.3613 60.6076 52.3733C60.607 52.3854 60.6134 53.241 60.6217 54.2747C60.6384 56.3547 60.648 56.4528 60.8999 57.1251C61.5097 58.7522 63.015 59.9392 64.9186 60.2941C65.0911 60.3262 65.5504 60.359 66.0447 60.3745C66.9963 60.4042 67.0756 60.4254 67.2506 60.6968C67.345 60.8431 67.3455 60.8499 67.3572 61.9387L67.3689 63.0336H59.3472H51.3254L51.3366 61.9189L51.3478 60.8042L51.4572 60.6575C51.526 60.5653 51.6268 60.4865 51.729 60.4453C51.8854 60.3823 52.0498 60.3798 56.1154 60.3791C60.7756 60.3782 60.485 60.3919 60.7589 60.161C60.9459 60.0035 61.034 59.8135 61.034 59.5679C61.0339 59.1739 60.7382 58.8635 60.2944 58.7914C60.162 58.7698 59.4311 58.7597 58.4209 58.7655C57.5099 58.7706 56.7645 58.7684 56.7645 58.7606C56.7645 58.7528 56.8598 58.634 56.9762 58.4966C57.526 57.8479 57.8796 57.0902 58.0044 56.2931C58.0296 56.1324 58.0459 55.303 58.0459 54.1823C58.0459 52.4378 58.0496 52.3375 58.1138 52.3605C58.1512 52.3739 58.3478 52.4159 58.5507 52.4537Z" fill="url(#paint0_linear_9_293)"/>
<path d="M85.5 40.5C85.5 61.2958 67.1189 78.5 44 78.5C20.8811 78.5 2.5 61.2958 2.5 40.5C2.5 19.7042 20.8811 2.5 44 2.5C67.1189 2.5 85.5 19.7042 85.5 40.5Z" stroke="url(#paint1_linear_9_293)" stroke-width="5"/>
<defs>
<linearGradient id="paint0_linear_9_293" x1="21" y1="39.8281" x2="69.1515" y2="39.8281" gradientUnits="userSpaceOnUse">
<stop stop-color="#0B3F66"/>
<stop offset="1" stop-color="#008EEC"/>
</linearGradient>
<linearGradient id="paint1_linear_9_293" x1="0" y1="40.5" x2="88" y2="40.5" gradientUnits="userSpaceOnUse">
<stop stop-color="#0B3F66"/>
<stop offset="1" stop-color="#008EEC"/>
</linearGradient>
</defs>
</svg>
