<svg width="88" height="81" viewBox="0 0 88 81" fill="none" xmlns="http://www.w3.org/2000/svg">
<path fill-rule="evenodd" clip-rule="evenodd" d="M26.411 14.3599C24.9227 15.0938 25.0008 13.6667 25.0008 40.1022C25.0008 66.6124 24.9174 65.127 26.446 65.8525C27.1021 66.1638 29.2407 66.2044 45.0016 66.2039C61.5155 66.2037 62.8722 66.1751 63.5932 65.8135C64.8959 65.1603 64.928 64.9684 64.9316 57.8405L64.9349 51.373L68.9879 47.3155C73.9944 42.3035 73.8873 42.6995 71.0127 39.8249C68.4873 37.2994 68.1573 37.2365 66.4227 38.9494C65.7807 39.5835 65.1834 40.1022 65.0953 40.1022C65.007 40.1022 64.9349 37.6566 64.9349 34.6674V29.2325L56.8874 21.6163L48.8401 14L37.9801 14.0051C28.5755 14.0094 27.0252 14.0571 26.411 14.3599ZM47.9797 22.4999V29.4382L48.7382 30.1967L49.4967 30.9553H56.435H63.3732V36.4755V41.9958L56.8194 48.5785L50.2653 55.1611L48.68 59.0312C47.4248 62.0954 47.1422 62.9896 47.322 63.3258C47.4469 63.5593 47.6158 63.7503 47.697 63.7503C47.7784 63.7503 49.6069 63.0319 51.7607 62.1538L55.6765 60.5574L59.5248 56.7462L63.3732 52.9349V58.5212C63.3732 62.5684 63.2994 64.1811 63.1055 64.375C62.7178 64.7627 27.2179 64.7627 26.8302 64.375C26.4418 63.9866 26.4418 16.2178 26.8302 15.8294C27.0308 15.6288 29.7155 15.5617 37.5388 15.5617H47.9797V22.4999ZM56.2529 23.0911L62.7823 29.282L56.4435 29.3414C52.9571 29.374 49.981 29.3532 49.83 29.2952C49.6236 29.216 49.5395 27.6586 49.4925 23.045C49.4579 19.6651 49.4958 16.9 49.5768 16.9C49.6576 16.9002 52.6618 19.686 56.2529 23.0911ZM33.2553 28.6128V29.3936H38.4981H43.7408V28.6128V27.8319H38.4981H33.2553V28.6128ZM33.2553 36.8673V37.6481H45.8602H58.4651V36.8673V36.0865H45.8602H33.2553V36.8673ZM70.0619 40.8788L71.7195 42.5475L71.0743 43.2213C70.7193 43.5916 70.3247 43.8948 70.1973 43.8948C69.9033 43.8948 66.9428 40.9687 66.9428 40.6782C66.9428 40.4424 68.0594 39.2098 68.2729 39.2098C68.3449 39.2098 69.1501 39.9607 70.0619 40.8788ZM62.2024 52.0922L55.2265 59.0682L52.3318 60.2787C50.7396 60.9447 49.409 61.4616 49.3751 61.4274C49.341 61.3933 49.83 60.1201 50.4616 58.5979L51.6101 55.8304L58.6599 48.7489L65.7095 41.6674L67.4441 43.3917L69.1786 45.1163L62.2024 52.0922ZM33.2553 42.5562V43.2255H45.8602H58.4651V42.5562V41.8869H45.8602H33.2553V42.5562ZM33.2553 49.9184V50.5877H42.96H52.6647V49.9184V49.2491H42.96H33.2553V49.9184ZM33.2553 54.7118V55.4958H40.1854H47.1156L47.0456 54.7707L46.9757 54.0457L40.1155 53.9868L33.2553 53.9276V54.7118Z" fill="url(#paint0_linear_9_301)"/>
<path d="M85.5 40.5C85.5 61.2958 67.1189 78.5 44 78.5C20.8811 78.5 2.5 61.2958 2.5 40.5C2.5 19.7042 20.8811 2.5 44 2.5C67.1189 2.5 85.5 19.7042 85.5 40.5Z" stroke="url(#paint1_linear_9_301)" stroke-width="5"/>
<defs>
<linearGradient id="paint0_linear_9_301" x1="25" y1="40.102" x2="73" y2="40.102" gradientUnits="userSpaceOnUse">
<stop stop-color="#0B3F66"/>
<stop offset="1" stop-color="#008EEC"/>
</linearGradient>
<linearGradient id="paint1_linear_9_301" x1="0" y1="40.5" x2="88" y2="40.5" gradientUnits="userSpaceOnUse">
<stop stop-color="#0B3F66"/>
<stop offset="1" stop-color="#008EEC"/>
</linearGradient>
</defs>
</svg>
