<svg width="88" height="81" viewBox="0 0 88 81" fill="none" xmlns="http://www.w3.org/2000/svg">
<path d="M85.5 40.5C85.5 61.2958 67.1189 78.5 44 78.5C20.8811 78.5 2.5 61.2958 2.5 40.5C2.5 19.7042 20.8811 2.5 44 2.5C67.1189 2.5 85.5 19.7042 85.5 40.5Z" stroke="url(#paint0_linear_9_309)" stroke-width="5"/>
<path fill-rule="evenodd" clip-rule="evenodd" d="M36.6064 18.0174L34.1169 18.0451L33.8188 18.191C33.4914 18.3512 32.4201 19.2842 32.2557 19.5523C31.9817 19.9993 31.8791 20.8219 31.8208 23.0396C31.7984 23.893 31.7825 30.8125 31.7855 38.4164L31.7909 52.2417L32.7305 52.2437C33.3326 52.2449 33.6764 52.2255 33.6878 52.1896C33.6976 52.1587 33.718 45.3642 33.7331 37.0907C33.7486 28.6613 33.7828 21.7489 33.8109 21.3678C33.9001 20.1606 34.0276 20.0622 35.6294 19.9635C36.0777 19.9359 39.8808 19.9127 44.0808 19.9119L51.717 19.9105L52.9832 21.3039C53.6796 22.0702 54.9002 23.4196 55.6956 24.3026L57.1418 25.908V33.2714V40.6349H58.1158H59.0898L59.0879 33.9117C59.0868 30.2139 59.0638 26.7933 59.0368 26.3104C58.9804 25.2994 58.9369 25.1624 58.4999 24.6181C57.52 23.3977 53.6423 19.1136 52.9269 18.461C52.5888 18.1527 52.4754 18.1175 51.6554 18.0672C50.7587 18.0121 40.2068 17.9772 36.6064 18.0174ZM37.9996 27.4512C37.7094 27.7659 37.6498 27.8896 37.646 28.1843C37.6424 28.4563 37.7521 28.7256 37.9654 28.9683L38.103 29.1249L45.3632 29.1515L52.6236 29.1782L52.8764 28.9071C53.3458 28.4037 53.3476 27.9764 52.8825 27.4792L52.6358 27.2155H45.4263H38.2168L37.9996 27.4512ZM28.5713 31.172C27.943 31.1956 27.6071 31.2321 27.4376 31.2952C26.4965 31.6456 25.6636 32.4371 25.1417 33.477L25 33.7593V47.2362V60.7131L25.1697 61.0498C25.4248 61.5556 25.7089 61.9479 26.0622 62.2821C26.4763 62.6738 26.769 62.8686 27.3065 63.1099L27.7462 63.3074H45.0724H62.3985L63.0579 62.9892C63.4597 62.7953 63.8227 62.5761 63.9873 62.428C64.6654 61.8179 65.4424 60.5109 68.2088 55.326C70.2272 51.543 70.6847 50.6812 71.7129 48.7245C73.5027 45.3186 73.6462 45.0131 73.6826 44.5302C73.7677 43.4007 73.0876 42.3524 72.1213 42.124C71.6033 42.0015 69.4747 41.939 65.7105 41.9356L63.484 41.9336L63.459 40.2156C63.4318 38.3357 63.4083 38.1653 63.0857 37.5025C62.8668 37.0526 62.1188 36.2921 61.6601 36.053C61.3278 35.8798 60.6718 35.6568 60.4946 35.6568C60.4402 35.6568 60.3826 35.6994 60.3666 35.7514C60.3455 35.82 60.172 37.4024 60.172 37.5264C60.172 37.5346 60.3486 37.6083 60.5643 37.6905C61.4158 38.0144 61.4934 38.2346 61.4959 40.3333L61.4977 41.8443L61.3354 41.8986C61.2293 41.934 57.5647 41.9548 50.7563 41.9585L40.3394 41.9642L39.9115 42.1951C39.1123 42.6262 38.7263 42.9808 38.3407 43.6381C37.9664 44.2763 37.0892 45.9119 35.9175 48.1563C34.5763 50.7254 34.4346 51.0006 31.7116 56.3271C30.3652 58.9609 29.2271 61.1735 29.1827 61.2439C29.1053 61.3663 29.0804 61.3709 28.6066 61.3488C28.046 61.3226 27.7446 61.2149 27.4097 60.9208C27.0483 60.6035 26.9915 60.3948 26.9478 59.2233C26.8978 57.8816 26.8989 37.4991 26.9491 35.7379C26.9897 34.3122 27.0302 34.044 27.2564 33.7022C27.536 33.2796 28.0603 33.1365 29.5161 33.0855C29.9935 33.0687 30.5111 33.0422 30.6663 33.0265C31.003 32.9925 30.9871 33.0428 31.0276 31.8813L31.0546 31.1091L30.2594 31.1238C29.822 31.1319 29.0624 31.1536 28.5713 31.172ZM37.9627 32.3695C37.7363 32.6281 37.607 32.9003 37.6093 33.1135C37.611 33.2689 37.8166 33.6291 38.034 33.8576L38.2528 34.0875H45.4333H52.6137L52.8542 33.8305C53.3676 33.2817 53.3703 32.8812 52.8643 32.3322L52.6368 32.0854H45.4241H38.2114L37.9627 32.3695ZM37.9484 37.2834C37.5174 37.7869 37.5213 38.17 37.9625 38.6734L38.2114 38.9575H45.426H52.6406L52.8885 38.6818C53.3355 38.1846 53.3496 37.809 52.9399 37.3113L52.6915 37.0095L45.4338 37.0135L38.176 37.0175L37.9484 37.2834ZM68.9874 43.876L71.5529 43.9186L71.6523 44.0413C71.707 44.1089 71.7517 44.2209 71.7517 44.2903C71.7517 44.4422 69.9115 48.06 68.4917 50.6996C68.3876 50.893 67.9979 51.6235 67.6257 52.3229C63.6841 59.7285 62.9953 60.8879 62.3483 61.2066L62.093 61.3323L46.712 61.3423C38.2524 61.3479 31.331 61.3377 31.331 61.3198C31.331 61.3019 31.6387 60.6886 32.0148 59.957C32.3908 59.2254 33.3674 57.3241 34.1848 55.7319C36.7353 50.7642 37.1242 50.0081 38.0405 48.2375C38.2407 47.8506 38.6306 47.0958 38.907 46.5601C39.6745 45.0724 40.0431 44.4101 40.193 44.249C40.4089 44.017 40.9298 43.9392 42.6401 43.8834C44.268 43.8304 65.869 43.8243 68.9874 43.876Z" fill="url(#paint1_linear_9_309)"/>
<defs>
<linearGradient id="paint0_linear_9_309" x1="0" y1="40.5" x2="88" y2="40.5" gradientUnits="userSpaceOnUse">
<stop stop-color="#0B3F66"/>
<stop offset="1" stop-color="#008EEC"/>
</linearGradient>
<linearGradient id="paint1_linear_9_309" x1="25" y1="40.6537" x2="73.6898" y2="40.6537" gradientUnits="userSpaceOnUse">
<stop stop-color="#0B3F66"/>
<stop offset="1" stop-color="#008EEC"/>
</linearGradient>
</defs>
</svg>
