<svg width="88" height="81" viewBox="0 0 88 81" fill="none" xmlns="http://www.w3.org/2000/svg">
<path d="M85.5 40.5C85.5 61.2958 67.1189 78.5 44 78.5C20.8811 78.5 2.5 61.2958 2.5 40.5C2.5 19.7042 20.8811 2.5 44 2.5C67.1189 2.5 85.5 19.7042 85.5 40.5Z" stroke="url(#paint0_linear_9_317)" stroke-width="5"/>
<path fill-rule="evenodd" clip-rule="evenodd" d="M26.5975 16.1956C26.0277 16.4181 25.5178 16.8755 25.2148 17.436L25 17.8333V41.4263V65.0193L25.2148 65.4167C25.468 65.885 25.955 66.3643 26.4404 66.6224C26.7752 66.8006 27.4382 66.8084 44.2677 66.8333C63.4942 66.8618 62.24 66.9002 63.0161 66.2604C63.2144 66.097 63.4923 65.731 63.6339 65.447L63.8912 64.9306V60.1992V55.4678L63.6613 55.2517C63.3336 54.944 62.8028 54.9622 62.4929 55.292L62.2521 55.5482L62.2275 59.9858C62.2139 62.4264 62.1797 64.523 62.1515 64.645C62.0239 65.1968 62.9927 65.1683 44.3684 65.1683H27.2198L26.9295 64.8779L26.6391 64.5876V41.4395V18.2915L26.8788 18.0127L27.1186 17.734L44.2879 17.7079C56.3983 17.6895 61.534 17.7133 61.7173 17.7889C61.8602 17.8478 62.028 17.9938 62.0901 18.1131C62.1711 18.2688 62.2099 20.6478 62.2276 26.5424L62.2521 34.7547L62.4929 35.011C62.8129 35.3514 63.3685 35.3639 63.6752 35.0374L63.8912 34.8075V26.3647V17.922L63.6296 17.3972C63.328 16.7919 62.6772 16.2631 62.0342 16.1007C61.7487 16.0286 56.1859 15.997 44.3519 16.0002C27.5656 16.0047 27.0725 16.0102 26.5975 16.1956ZM33.1316 21.1604C32.6426 21.3577 32.5994 21.5614 32.5994 23.6713C32.5994 25.6295 32.6008 25.6418 32.8433 25.8842L33.0871 26.1281H44.4486H55.8101L56.0113 25.9046C56.3099 25.5728 56.3547 25.3589 56.2022 24.9936C56.1094 24.7715 55.9599 24.6283 55.7412 24.5521C55.5077 24.4707 52.4794 24.4394 44.853 24.4394H34.2882V23.595V22.7506H45.0492H55.8101L56.0113 22.5271C56.3099 22.1953 56.3547 21.9814 56.2022 21.616C56.1094 21.394 55.9599 21.2508 55.7412 21.1746C55.3491 21.0379 33.4691 21.0241 33.1316 21.1604ZM72.1897 26.4317C71.6565 26.6977 71.2766 27.0736 70.9353 27.6729C70.6679 28.1425 70.6279 28.1722 70.3116 28.1353C70.1256 28.1136 69.8847 28.1433 69.7761 28.2014C69.6676 28.2595 69.1285 29.0796 68.5783 30.0239C67.2098 32.372 67.4101 32.1722 66.7491 31.8488C66.2262 31.5929 66.181 31.587 65.8432 31.7282C65.597 31.831 65.4651 31.9628 65.4144 32.1564C65.2653 32.7245 65.3902 32.9633 66.0513 33.3749L66.473 33.6373L62.8894 39.8415L59.3057 46.0456L58.4152 48.419C57.9255 49.7244 57.2585 51.3012 56.9331 51.923C56.4004 52.9407 56.3414 53.1134 56.3414 53.6536C56.3414 54.0439 56.4146 54.4241 56.5508 54.7407L56.7602 55.2276L55.8887 56.2988C55.4093 56.8881 54.986 57.4066 54.9479 57.4509C54.9099 57.4953 54.7338 57.1722 54.5568 56.7331C54.0568 55.4929 53.3695 54.9996 52.3959 55.1823C52.0347 55.25 51.3711 55.8162 51.1194 56.2714C51.0375 56.4194 50.9764 56.0386 50.8518 54.6029C50.6722 52.5353 50.5806 52.2658 49.9009 51.804C49.2604 51.3686 48.2977 51.5205 47.7774 52.1388C47.405 52.5814 45.2539 59.0512 45.3508 59.4372C45.4382 59.7853 45.9703 60.1264 46.3082 60.0508C46.4448 60.0202 46.646 59.8956 46.7552 59.7737C46.8685 59.6476 47.3796 58.2397 47.9441 56.4993C48.4887 54.8202 48.9613 53.4463 48.9943 53.4463C49.0273 53.4463 49.1114 54.1951 49.1813 55.1102C49.2524 56.0421 49.3715 56.9266 49.4521 57.1205C49.9938 58.4251 51.5895 58.6039 52.402 57.4511C52.5682 57.2153 52.7331 57.0225 52.7687 57.0225C52.8042 57.0225 52.9569 57.3378 53.108 57.7232C53.4514 58.5982 53.7424 58.9487 54.3035 59.1631C54.8222 59.3612 55.3407 59.2995 55.8073 58.9841C55.9778 58.8687 56.5786 58.1881 57.1422 57.4713L58.1669 56.1682L58.7354 56.2093C59.1874 56.242 59.413 56.2005 59.8352 56.0073C60.4979 55.7039 60.7595 55.4277 61.5353 54.2129C61.8749 53.6812 62.8279 52.4306 63.653 51.4339L65.1533 49.6218L68.7551 43.3634C70.736 39.9213 72.37 37.0908 72.386 37.0733C72.4545 36.9985 73.2294 37.4694 73.3715 37.6722C73.6937 38.1322 73.5875 38.3891 71.7779 41.5257C70.8165 43.1921 70.0066 44.6987 69.9781 44.8738C69.9355 45.1358 69.9818 45.2474 70.2406 45.5063C70.5034 45.7689 70.6056 45.8103 70.8643 45.7586C71.0345 45.7245 71.2315 45.6487 71.3022 45.59C71.5022 45.424 75.017 39.2895 75.1222 38.9228C75.4509 37.7769 74.9822 36.6833 73.8531 35.9613L73.2354 35.5663L74.325 33.6813C75.4837 31.6765 75.6074 31.3005 75.2228 30.9523C75.0343 30.7817 75.0369 30.7679 75.3752 30.1524C75.8022 29.3756 75.8921 28.7387 75.6781 28.0073C75.3549 26.9027 74.4212 26.2242 73.2344 26.2314C72.7914 26.2341 72.4576 26.2981 72.1897 26.4317ZM35.413 28.1397C35.1132 28.4729 35.0697 28.6856 35.2252 29.0579C35.3321 29.3139 35.4559 29.42 35.7457 29.5044C36.0159 29.5831 38.6084 29.6065 44.7026 29.5852L53.2792 29.5553L53.5189 29.2766C53.8321 28.9124 53.8305 28.4758 53.5147 28.1601L53.271 27.9162H44.4426H35.6143L35.413 28.1397ZM73.8226 28.1124C74.1398 28.4296 74.1678 28.7544 73.9218 29.2627C73.7999 29.5144 73.6453 29.7414 73.5781 29.7672C73.4861 29.8025 72.4058 29.2591 72.1491 29.0482C72.079 28.9907 72.6374 28.1222 72.8087 28.0224C73.0966 27.8547 73.6105 27.9003 73.8226 28.1124ZM71.9754 30.9107C72.7469 31.3557 73.3948 31.7338 73.4154 31.751C73.4447 31.7756 71.9065 34.5087 71.7788 34.6589C71.754 34.6882 69.023 33.1517 68.8713 33.0232C68.8312 32.9893 70.4741 30.1056 70.535 30.1032C70.5557 30.1024 71.2039 30.4658 71.9754 30.9107ZM39.0655 33.8847C38.7214 34.0234 38.5665 34.2712 38.5629 34.6888C38.5606 34.9674 38.6219 35.1031 38.8215 35.26C39.0822 35.4652 39.1213 35.466 48.7102 35.466H58.3372L58.581 35.2221C58.9157 34.8875 58.9103 34.3887 58.5686 34.0677L58.3122 33.8269L48.8086 33.8076C42.8446 33.7955 39.2157 33.8242 39.0655 33.8847ZM69.926 35.5913C70.4314 35.8775 70.8449 36.1514 70.8449 36.1999C70.8449 36.2685 64.5706 47.1955 64.2011 47.7702C64.1331 47.876 63.8031 47.7263 62.6864 47.0833C61.9012 46.6311 61.2451 46.2511 61.2284 46.2389C61.2056 46.2222 65.4024 38.9075 67.7358 34.8974L67.98 34.4777L68.4936 34.7744C68.7761 34.9376 69.4206 35.3052 69.926 35.5913ZM31.5335 38.9122C31.2338 38.9716 30.9107 39.4039 30.9107 39.7454C30.9107 39.8989 31.0185 40.1499 31.1504 40.3032L31.3902 40.5819H40.1823H48.9744L49.2306 40.3411C49.5839 40.0092 49.5839 39.4659 49.2307 39.134L48.9745 38.8932L40.3648 38.8808C35.6294 38.874 31.6553 38.8882 31.5335 38.9122ZM51.9208 38.912C51.2732 39.0771 51.0516 39.8902 51.5315 40.3411L51.7878 40.5819H55.0666H58.3454L58.5852 40.3032C58.8916 39.9471 58.8916 39.5281 58.5853 39.1719L58.3457 38.8932L55.2326 38.8773C53.5204 38.8685 52.0301 38.8841 51.9208 38.912ZM31.3577 43.2351C30.8483 43.5271 30.7517 44.1572 31.1545 44.56L31.3983 44.8038H35.9589H40.5194L40.7814 44.542C41.1371 44.1861 41.1269 43.7795 40.7529 43.4054L40.4625 43.1151L36.0094 43.1181C32.847 43.1202 31.4988 43.1541 31.3577 43.2351ZM43.2287 43.2436C42.6892 43.5165 42.6241 44.2291 43.1042 44.6067C43.3425 44.7942 43.5139 44.8038 46.6009 44.8038C49.7244 44.8038 49.8551 44.7962 50.0631 44.6024C50.5158 44.1807 50.4273 43.5184 49.8814 43.2421C49.5289 43.0638 43.5816 43.0651 43.2287 43.2436ZM62.1295 48.7027C62.6085 48.9757 63.0248 49.2385 63.0548 49.2869C63.0847 49.3353 62.6283 49.9541 62.0407 50.662L60.9723 51.9491L60.4201 51.6345C60.1164 51.4614 59.7453 51.2507 59.5954 51.1662C59.4455 51.0817 59.3226 50.9854 59.3222 50.9523C59.3215 50.8793 60.4098 47.9712 60.4809 47.856C60.5085 47.8113 60.6949 47.8718 60.8949 47.9905C61.095 48.1092 61.6506 48.4297 62.1295 48.7027ZM34.0895 49.2279C31.3822 49.8013 29.2677 51.8331 28.5622 54.5391C28.3034 55.5315 28.3243 57.1719 28.6082 58.1604C29.3216 60.6447 31.1662 62.4888 33.647 63.1983C34.2513 63.3711 34.6942 63.4246 35.5299 63.4256C36.8834 63.4274 37.4375 63.297 38.7434 62.6691C39.6001 62.2574 39.8998 62.0477 40.5408 61.4117C41.8424 60.1201 42.5936 58.5293 42.7022 56.834C42.7556 56.0003 42.7503 55.9728 42.4826 55.7063C41.8906 55.1168 41.0449 55.5586 41.0417 56.459C41.0374 57.6982 40.4028 59.1547 39.4545 60.102C38.3554 61.1999 37.1008 61.7285 35.5796 61.7345C32.4679 61.7468 30.0606 59.3395 30.0729 56.2278C30.0789 54.7066 30.6075 53.452 31.7054 52.3529C33.0272 51.0297 34.9415 50.488 36.7716 50.9192C37.3497 51.0555 37.6522 51.1872 38.972 51.877C39.3047 52.0509 39.3639 52.0543 39.6888 51.9186C40.0651 51.7613 40.19 51.5036 40.1321 51.0031C40.0669 50.4397 38.4674 49.5331 36.984 49.2187C36.1627 49.0445 34.937 49.0485 34.0895 49.2279ZM59.38 53.0078C59.7303 53.2037 60.017 53.3843 60.017 53.4092C60.017 53.5706 59.5839 54.2548 59.4002 54.3835C58.8699 54.7549 58.1167 54.3817 58.1046 53.7416C58.098 53.391 58.4644 52.6516 58.6447 52.6516C58.6987 52.6516 59.0296 52.8119 59.38 53.0078ZM38.6591 53.8171C38.5771 53.8484 37.7821 54.5671 36.8925 55.4141L35.2748 56.9543L34.2495 55.9453C33.4078 55.1171 33.1707 54.9364 32.9254 54.9364C32.5042 54.9364 32.1027 55.3584 32.1027 55.8013C32.1027 56.1006 32.232 56.275 33.1545 57.221C33.733 57.8143 34.3623 58.3736 34.5529 58.464C34.9522 58.6535 35.5993 58.6768 36.0176 58.5168C36.4013 58.37 39.4411 55.3709 39.6129 54.9697C39.8057 54.5192 39.6311 54.0648 39.1952 53.8826C39.0131 53.8066 38.8515 53.7479 38.8361 53.7522C38.8207 53.7565 38.7411 53.7857 38.6591 53.8171Z" fill="url(#paint1_linear_9_317)"/>
<defs>
<linearGradient id="paint0_linear_9_317" x1="0" y1="40.5" x2="88" y2="40.5" gradientUnits="userSpaceOnUse">
<stop stop-color="#0B3F66"/>
<stop offset="1" stop-color="#008EEC"/>
</linearGradient>
<linearGradient id="paint1_linear_9_317" x1="25" y1="41.4231" x2="75.7897" y2="41.4231" gradientUnits="userSpaceOnUse">
<stop stop-color="#0B3F66"/>
<stop offset="1" stop-color="#008EEC"/>
</linearGradient>
</defs>
</svg>
