<svg width="88" height="81" viewBox="0 0 88 81" fill="none" xmlns="http://www.w3.org/2000/svg">
<path d="M85.5 40.5C85.5 61.2958 67.1189 78.5 44 78.5C20.8811 78.5 2.5 61.2958 2.5 40.5C2.5 19.7042 20.8811 2.5 44 2.5C67.1189 2.5 85.5 19.7042 85.5 40.5Z" stroke="url(#paint0_linear_9_332)" stroke-width="5"/>
<path fill-rule="evenodd" clip-rule="evenodd" d="M32.7716 18.1505C32.6096 18.233 32.3969 18.4098 32.299 18.5433C32.1292 18.7748 32.121 18.8942 32.121 21.1505V23.515L32.3239 23.6793C32.5637 23.8736 32.9243 23.8919 33.1573 23.7217C33.3125 23.6084 33.3271 23.4518 33.3671 21.4659L33.4101 19.3319L35.3651 19.3088L37.3202 19.2857V20.7596C37.3202 22.9212 37.4056 23.0176 39.2797 22.9697C40.2507 22.9449 40.4215 22.9188 40.5888 22.7694C40.952 22.445 41.0154 22.1326 41.0154 20.6667V19.2889H42.949H44.8826V23.7536V28.2183L42.5975 28.2438C40.3139 28.2693 40.3124 28.2694 40.1483 28.4722C39.9943 28.6626 39.9842 28.8467 39.9842 31.4585V34.2419H36.6756H33.3671V29.8654V25.4888L33.1406 25.3108C32.8324 25.0683 32.6262 25.0868 32.3292 25.3838L32.078 25.635V29.9385V34.2419L30.123 34.2421C27.9335 34.2422 27.7431 34.2832 27.3747 34.8347L27.1797 35.1267V40.0124V44.898H26.0597C24.7698 44.898 24.4627 44.9861 24.1849 45.4354L24 45.7347V53.6561V61.5775L24.211 61.7884L24.4219 61.9994H28.0235C31.5371 61.9994 31.6307 61.995 31.8516 61.8213C32.1354 61.5981 32.1621 61.1381 31.9062 60.8822C31.7404 60.7165 31.6197 60.7104 28.5117 60.7104H25.289V53.4487V46.1871H29.7922H34.2954L34.3262 47.6695C34.3607 49.3255 34.4258 49.5371 34.9717 49.7651C35.3894 49.9397 37.0777 49.9239 37.4614 49.7418C37.9534 49.5084 38.0077 49.3011 38.0077 47.6523V46.1871H42.5623H47.1169V53.4487V60.7104H40.4941C35.9903 60.7104 33.8169 60.7395 33.701 60.8015C33.2889 61.0221 33.3276 61.7037 33.7637 61.9023C33.9197 61.9734 38.4739 61.9994 50.7772 61.9994H67.5776L67.7885 61.7884L67.9995 61.5775L67.9992 55.3647C67.9989 49.4377 67.9914 49.1397 67.8374 48.8872C67.5103 48.3506 67.4042 48.3355 63.969 48.3355H60.8668V43.2802V38.225L60.6679 38.0381C60.404 37.7902 60.051 37.7999 59.7887 38.0622L59.5777 38.2731V43.3043V48.3355H53.9919H48.406V46.8277C48.406 45.3414 48.403 45.3169 48.195 45.109L47.9841 44.898H44.6286H41.2732V37.2067V29.5154H44.9201H48.567L48.5939 31.0608L48.6208 32.6063L48.9015 32.8869L49.1822 33.1677L50.3415 33.1959C51.3895 33.2213 51.5282 33.2071 51.7863 33.0476C52.2289 32.774 52.2731 32.5853 52.2731 30.9723V29.5154H55.9254H59.5777V32.8144C59.5777 36.4799 59.5678 36.4158 60.1521 36.5286C60.3728 36.5712 60.4684 36.5387 60.6463 36.3608L60.8668 36.1403L60.8664 32.5915C60.8662 29.271 60.8558 29.0257 60.7047 28.7781C60.3541 28.2031 60.6768 28.2263 53.0551 28.2263H46.1716L46.1713 23.5213C46.171 18.9537 46.166 18.808 45.9975 18.5318C45.6643 17.9852 45.8531 17.9999 39.1491 18.0001C33.5278 18.0002 33.044 18.0116 32.7716 18.1505ZM39.7264 20.4921V21.6952H39.1678H38.6092V20.4921V19.2889H39.1678H39.7264V20.4921ZM50.9841 30.7185V31.9216H50.4255H49.8669V30.7185V29.5154H50.4255H50.9841V30.7185ZM32.4218 36.9962C32.4218 39.172 32.4959 39.2567 34.357 39.2113C35.4315 39.185 35.5158 39.1704 35.7238 38.9748C36.0481 38.6698 36.116 38.3009 36.1165 36.8415L36.1171 35.5309H38.0506H39.9842V40.2145V44.898H34.2264H28.4687V40.2145V35.5309H30.4452H32.4218V36.9962ZM34.7421 36.7341V37.9372H34.2264H33.7108V36.7341V35.5309H34.2264H34.7421V36.7341ZM36.7186 47.3902V48.5933H36.203H35.6874V47.3902V46.1871H36.203H36.7186V47.3902ZM55.7267 51.1699L55.7536 52.7154L56.0342 52.9961L56.315 53.2768L57.4221 53.3049C58.6736 53.3368 58.9451 53.2581 59.2374 52.7785C59.3862 52.5346 59.4053 52.34 59.4055 51.064L59.4059 49.6245H63.0582H66.7105V55.1674V60.7104H57.5582H48.406V55.1674V49.6245H52.0529H55.6998L55.7267 51.1699ZM58.1168 50.8277V52.0308H57.5582H56.9996V50.8277V49.6245H57.5582H58.1168V50.8277Z" fill="url(#paint1_linear_9_332)"/>
<defs>
<linearGradient id="paint0_linear_9_332" x1="0" y1="40.5" x2="88" y2="40.5" gradientUnits="userSpaceOnUse">
<stop stop-color="#0B3F66"/>
<stop offset="1" stop-color="#008EEC"/>
</linearGradient>
<linearGradient id="paint1_linear_9_332" x1="24" y1="39.9997" x2="67.9995" y2="39.9997" gradientUnits="userSpaceOnUse">
<stop stop-color="#0B3F66"/>
<stop offset="1" stop-color="#008EEC"/>
</linearGradient>
</defs>
</svg>
