<svg width="53" height="53" viewBox="0 0 53 53" fill="none" xmlns="http://www.w3.org/2000/svg">
<path fill-rule="evenodd" clip-rule="evenodd" d="M24.219 52.1713C21.6796 51.9912 18.8573 51.3369 16.4451 50.3691C14.9702 49.7773 12.9942 48.7306 11.6707 47.8399C3.28824 42.199 -1.09925 32.3712 0.323864 22.4236C1.23319 16.0673 4.51898 10.2196 9.51725 6.06218C14.3467 2.04515 20.4149 -0.0755272 26.6648 0.0694771C28.5276 0.112675 30.0685 0.297634 31.8062 0.686573C41.318 2.8156 48.99 10.3011 51.3617 19.7669C52.8605 25.7486 52.23 31.9432 49.5583 37.487C47.7515 41.2363 44.9386 44.639 41.6083 47.1041C37.5578 50.1024 32.8839 51.8271 27.8612 52.177C26.9654 52.2393 25.1381 52.2365 24.219 52.1713ZM28.7119 49.8702C31.5755 49.5248 34.0525 48.7986 36.528 47.5786C38.9042 46.4075 40.7671 45.0965 42.6374 43.2789C44.6205 41.3517 46.1104 39.3348 47.3479 36.9026C48.8145 34.0199 49.633 31.0465 49.8782 27.7104C49.9547 26.6702 49.9123 24.6064 49.7932 23.566C49.1618 18.0549 46.7901 13.1213 42.9092 9.24639C39.4221 5.76453 35.0195 3.47196 30.2113 2.63414C28.7064 2.37193 28.0075 2.31677 26.1597 2.31454C24.0631 2.31199 23.0447 2.41019 21.1882 2.79403C14.4972 4.17747 8.52769 8.61096 5.24083 14.6379C3.68277 17.495 2.8055 20.2791 2.41087 23.6191C2.27784 24.7455 2.27784 27.5404 2.41087 28.6668C2.6118 30.3674 2.9455 31.9526 3.40644 33.3962C5.39013 39.6083 9.84563 44.7538 15.7116 47.6071C18.5118 48.9691 21.147 49.6717 24.5646 49.9676C25.1662 50.0196 28.0307 49.9524 28.7119 49.8702ZM11.2453 38.2114C11.0698 38.161 10.7947 38.0498 10.6338 37.9642C10.2169 37.7424 9.63508 37.1401 9.4259 36.7138C9.07258 35.9937 9.09348 36.6569 9.09348 26.143C9.09348 15.629 9.07258 16.2922 9.4259 15.5721C9.64268 15.1303 10.2218 14.5382 10.6604 14.3097C11.3549 13.9482 10.0716 13.9753 26.4705 13.9753C37.0975 13.9753 41.3881 13.992 41.5899 14.034C42.2702 14.1758 42.9427 14.6336 43.3519 15.2334C43.6341 15.647 43.7854 16.0378 43.8658 16.5607C43.9038 16.8075 43.917 19.961 43.9069 26.3821L43.8922 35.8399L43.7465 36.2691C43.4061 37.2724 42.5608 38.0496 41.5899 38.2519C41.3878 38.294 37.1017 38.3096 26.4362 38.3068C12.5231 38.3033 11.5437 38.2971 11.2453 38.2114ZM40.2411 36.1414C40.2273 36.1072 32.3525 28.8891 28.8445 25.6952C27.3975 24.3778 26.6884 24.0295 26.0268 24.3113C25.4427 24.56 24.9663 24.9407 23.1024 26.6481C22.4298 27.2642 19.8816 29.5936 17.4397 31.8244C14.9978 34.0552 12.9286 35.949 12.8414 36.0328L12.6829 36.1853H26.4709C34.0542 36.1853 40.2509 36.1656 40.2411 36.1414ZM15.1788 30.6545C17.1961 28.8307 19.1581 27.0568 19.5388 26.7125C19.9196 26.3681 20.2312 26.0663 20.2312 26.0418C20.2312 26.0056 11.6646 18.0017 11.3614 17.7546C11.2776 17.6863 11.2719 18.206 11.2719 25.9332V34.1847L11.3915 34.0776C11.4573 34.0186 13.1616 32.4782 15.1788 30.6545ZM41.7387 25.9007V17.6352L40.2101 19.06C39.3693 19.8437 37.3468 21.7259 35.7156 23.2428C34.0843 24.7596 32.7581 26.0259 32.7684 26.0566C32.7908 26.1238 41.6415 34.1574 41.6989 34.1626C41.7208 34.1645 41.7387 30.4467 41.7387 25.9007ZM22.6333 23.6959C23.6116 22.8079 23.8617 22.6174 24.3754 22.3689C25.1017 22.0176 25.5242 21.9293 26.4787 21.9293C27.4304 21.9293 27.8615 22.0184 28.579 22.3637C29.1137 22.6209 29.4535 22.876 30.3836 23.7183C30.7914 24.0875 31.1401 24.3895 31.1587 24.3895C31.1892 24.3895 39.5955 16.7121 40.0364 16.2815L40.2216 16.1007H26.5177C18.9806 16.1007 12.8156 16.1186 12.8179 16.1405C12.8254 16.2153 21.7729 24.3838 21.8358 24.3734C21.8703 24.3677 22.2292 24.0628 22.6333 23.6959Z" fill="url(#paint0_linear_2_93)"/>
<defs>
<linearGradient id="paint0_linear_2_93" x1="0.059021" y1="26.1423" x2="52.1568" y2="26.1423" gradientUnits="userSpaceOnUse">
<stop stop-color="#0B3F66"/>
<stop offset="1" stop-color="#008EEC"/>
</linearGradient>
</defs>
</svg>
