<svg width="53" height="53" viewBox="0 0 53 53" fill="none" xmlns="http://www.w3.org/2000/svg">
<path fill-rule="evenodd" clip-rule="evenodd" d="M24.7025 11.2592C22.0543 11.566 19.8581 12.5838 17.9816 14.3742C16.0374 16.2292 14.8152 18.5572 14.4163 21.1648C14.2914 21.9819 14.2912 23.6868 14.4161 24.4824C15.0051 28.2354 17.1328 32.1622 21.371 37.3181C22.4497 38.6303 24.4091 40.8984 24.636 41.0975C25.3974 41.7655 26.296 41.8008 27.0924 41.1937C27.2181 41.0979 27.7221 40.5391 28.2124 39.9521C33.6088 33.4903 36.4553 28.05 36.7714 23.5939C36.8402 22.6235 36.7617 21.2685 36.5814 20.316C35.6065 15.1652 32.01 11.797 26.9377 11.2843C26.3316 11.223 25.1312 11.2095 24.7025 11.2592ZM27.2422 13.2312C27.9059 13.3182 29.0134 13.6202 29.6195 13.8794C30.6419 14.3167 31.4321 14.8601 32.2377 15.6796C33.7776 17.2461 34.6737 19.3538 34.8968 21.9341C35.2456 25.9685 32.8744 31.1371 27.724 37.5688C26.5932 38.9809 25.9815 39.6762 25.8883 39.6554C25.7899 39.6334 23.7135 37.2171 22.4796 35.6888C17.3583 29.3456 15.538 24.9447 16.3628 20.9002C16.9484 18.0288 18.8928 15.4814 21.5189 14.1456C23.3172 13.2308 25.0849 12.9483 27.2422 13.2312ZM24.7966 17.0268C22.5566 17.3985 20.8527 18.8983 20.1788 21.0912C20.0204 21.6066 20.0064 21.7361 20.0064 22.6861C20.0064 23.6321 20.0208 23.7669 20.1759 24.2713C20.7819 26.241 22.2638 27.6916 24.2009 28.2109C24.9173 28.403 26.2468 28.4025 26.96 28.21C28.4774 27.8002 29.7688 26.7878 30.498 25.4362C31.0394 24.4327 31.2316 23.5567 31.1742 22.3545C31.1054 20.9139 30.5908 19.7249 29.5937 18.7029C28.4884 17.57 27.0768 16.9733 25.5491 16.993C25.2214 16.9973 24.8828 17.0125 24.7966 17.0268ZM26.4587 18.9603C27.0303 19.1091 27.58 19.409 28.0206 19.8124C28.5359 20.2843 28.8496 20.7613 29.0844 21.4301C29.2503 21.9027 29.2721 22.0463 29.27 22.6548C29.2681 23.2369 29.2411 23.4219 29.0969 23.8448C28.8634 24.5293 28.5765 24.9765 28.0571 25.4662C27.3268 26.1547 26.5506 26.4674 25.5792 26.4647C23.8834 26.4601 22.4855 25.3864 21.9242 23.6574C21.7654 23.1684 21.7824 22.0806 21.9575 21.5268C22.3354 20.3314 23.2529 19.3966 24.4157 19.0223C24.9917 18.837 25.8809 18.81 26.4587 18.9603Z" fill="url(#paint0_linear_2_106)"/>
<circle cx="26.4343" cy="26.0308" r="24.4996" stroke="url(#paint1_linear_2_106)" stroke-width="3.06245"/>
<defs>
<linearGradient id="paint0_linear_2_106" x1="14.3225" y1="26.427" x2="36.7961" y2="26.427" gradientUnits="userSpaceOnUse">
<stop stop-color="#0B3F66"/>
<stop offset="1" stop-color="#008EEC"/>
</linearGradient>
<linearGradient id="paint1_linear_2_106" x1="0.403503" y1="26.0308" x2="52.4652" y2="26.0308" gradientUnits="userSpaceOnUse">
<stop stop-color="#0B3F66"/>
<stop offset="1" stop-color="#008EEC"/>
</linearGradient>
</defs>
</svg>
