<svg width="314" height="134" viewBox="0 0 314 134" fill="none" xmlns="http://www.w3.org/2000/svg">
<g clip-path="url(#clip0_115_469)">
<g filter="url(#filter0_i_115_469)">
<path d="M120.991 86.9337L96.499 44.6444H107.071L124.809 75.3629L142.547 44.6444H153.061L128.568 86.9337H120.991ZM162.22 86.9337V44.6444H171.206V86.9337H162.22ZM191.991 86.9337C190.424 86.9337 188.975 86.5423 187.644 85.7592C186.313 84.9761 185.255 83.9188 184.472 82.5873C183.689 81.2561 183.298 79.8074 183.298 78.2409V53.3373C183.298 51.7319 183.689 50.2832 184.472 48.9908C185.255 47.6597 186.313 46.6024 187.644 45.8193C188.975 45.0362 190.424 44.6444 191.991 44.6444H216.835C218.441 44.6444 219.89 45.0362 221.182 45.8193C222.513 46.6024 223.571 47.6597 224.354 48.9908C225.176 50.2832 225.587 51.7319 225.587 53.3373V57.3311H216.366V53.8073H192.402V77.7711H216.366V71.4276H207.203V62.2651H225.587V78.2409C225.587 79.8074 225.176 81.2561 224.354 82.5873C223.571 83.9188 222.513 84.9761 221.182 85.7592C219.89 86.5423 218.441 86.9337 216.835 86.9337H191.991ZM237.632 86.9337V44.6444H246.619V86.9337H237.632ZM258.769 86.9337V44.5859H267.873V77.7711H301.058V86.9337H258.769Z" fill="url(#paint0_linear_115_469)"/>
</g>
<path fill-rule="evenodd" clip-rule="evenodd" d="M27.0104 27.4476C30.9137 32.2051 34.485 35.8468 38.7203 39.3895C40.6855 41.0329 45.1395 44.3281 45.4598 44.3753C45.5568 44.3897 45.3845 44.1463 45.0764 43.8341C38.7778 37.4548 35.7184 32.6505 36.0615 29.6763C36.1748 28.692 36.4528 27.999 36.8571 27.6936C37.1112 27.5016 37.2606 27.637 38.7124 29.3724C44.8767 36.7428 52.9409 44.2041 60.5037 49.5356C61.3142 50.1068 61.9623 50.6431 61.9444 50.7268C61.8683 51.0786 63.5654 55.6711 64.4215 57.4312C65.6701 59.9981 66.7879 61.7776 68.4321 63.8147C70.4862 66.3598 73.0432 68.6448 75.3354 69.9836L76.1318 70.4488L79.4118 70.402C83.7825 70.3396 85.2613 70.4016 87.5756 70.7446C93.8571 71.6757 99.6077 74.8191 100.554 77.8393C100.689 78.2706 100.799 78.8639 100.8 79.1583C100.8 79.501 101.035 80.0388 101.454 80.6518C102.91 82.7844 103.139 84.6122 102.092 85.7726C101.551 86.3731 100.477 86.9288 99.1844 87.2776C98.3362 87.5065 95.0266 87.845 94.8672 87.7195C94.8148 87.6781 94.9106 87.2951 95.0806 86.8687C95.4503 85.9396 95.3655 84.6662 94.9129 84.349C94.0971 83.7778 89.4582 83.3374 88.2506 83.7162C86.6521 84.2178 83.8008 85.9772 82.1734 87.4658C80.7985 88.724 79.0277 92.5756 78.7223 94.9724C78.5823 96.0681 78.8116 96.5633 80.2074 98.185C82.0931 100.375 84.4759 101.59 86.7225 101.506C87.0891 101.492 88.9466 100.971 90.8513 100.348C92.7556 99.725 94.42 99.2351 94.5497 99.2599C95.3716 99.4165 96.64 100.69 96.7773 101.495C96.8252 101.779 96.7689 102.194 96.651 102.428L96.4376 102.848L96.2322 102.28C95.9493 101.497 95.5252 101.217 94.9825 101.455C94.7531 101.555 94.5379 101.644 94.5036 101.652C94.4694 101.66 94.585 101.941 94.7604 102.276C95.0848 102.896 95.014 104.103 94.6573 104.035C94.5653 104.017 94.5078 103.921 94.5291 103.822C94.5717 103.625 93.8803 102.735 93.6521 102.691C93.3638 102.636 90.1641 103.93 90.0139 104.163C89.9271 104.296 89.9195 104.871 89.996 105.44C90.0743 106.023 90.058 106.615 89.9587 106.796C89.6993 107.266 90.3101 107.737 91.2762 107.814L92.0003 107.871L91.3781 108.167C90.4402 108.613 89.8157 108.532 88.2868 107.767L86.9754 107.11L86.7236 105.776L86.4726 104.441L85.4073 103.971L84.3424 103.501L83.4372 103.822C81.3617 104.556 78.2506 104.97 76.2121 104.782L75.273 104.696L73.0105 101.576C71.766 99.8608 70.7216 98.4718 70.6901 98.4897C70.6585 98.5079 69.5632 100.685 68.2567 103.329C65.3202 109.269 65.0947 109.701 64.9212 109.719C64.8444 109.727 64.3671 109.84 63.8601 109.97C63.3531 110.1 62.5115 110.303 61.9893 110.421C61.116 110.619 60.992 110.702 60.4421 111.461L59.8442 112.287L55.5438 113.031C53.1786 113.44 51.1373 113.755 51.008 113.73C51.4397 112.249 50.7677 113.489 50.7619 113.248C50.7559 113.008 50.6897 112.763 50.6148 112.703C50.5398 112.644 49.3897 112.783 48.0593 113.012C46.7286 113.241 45.5537 113.412 45.4484 113.392C45.343 113.372 45.3187 113.254 45.3944 113.129C45.4697 113.005 45.7561 112.298 46.0307 111.558L46.53 110.212L53.3722 103.303C57.1355 99.5033 60.4915 96.0985 60.83 95.7368L61.4458 95.0797L60.6821 95.0302C59.8305 94.9754 57.922 94.311 57.1983 93.8177C56.751 93.5131 56.7491 93.5001 57.0336 92.609L57.3207 91.708L56.7936 91.8157C55.0996 92.1618 52.4563 91.7061 51.1449 90.8424C50.7471 90.58 50.439 90.2814 50.4611 90.1791C50.4835 90.0768 50.7114 89.6124 50.9685 89.1465C51.2248 88.6814 51.4005 88.2573 51.3579 88.2048C51.3153 88.152 50.8536 88.1558 50.3322 88.2132C48.9318 88.3668 46.9906 88.2326 45.8538 87.9028C44.7143 87.5723 43.6563 87.0189 43.708 86.7797C43.7278 86.6888 44.1393 86.0286 44.6231 85.3128C45.1064 84.5966 45.4476 84.0007 45.3814 83.9881C45.3149 83.9756 44.5782 84.028 43.7445 84.1053C39.8819 84.4616 37.0321 83.9805 35.8709 82.7756L35.4191 82.3067L36.2828 81.7966C36.7575 81.516 37.5501 81.0482 38.0437 80.7572C38.5378 80.4666 39.1684 80.0867 39.4449 79.9136L39.9484 79.5991L39.4251 79.6037C35.6834 79.6375 32.3369 79.3009 30.4269 78.6989C28.8291 78.1957 27.7364 77.6872 26.8811 77.049C26.1915 76.5348 25.3696 75.4741 25.5415 75.3212C25.6005 75.2683 26.0554 75.2573 26.5517 75.2964C27.8943 75.4029 35.0521 74.7853 34.8315 74.5822C34.8003 74.5533 34.0499 74.4384 33.1645 74.327C30.7201 74.0185 26.0432 73.1171 24.388 72.6353C20.8334 71.6 18.8611 70.6032 17.7554 69.2823C17.2511 68.6798 17.0518 68.3064 17.1051 68.0607C17.1796 67.7153 17.2165 67.7115 18.6648 67.8933C22.4806 68.3729 26.8533 68.6023 29.9389 68.4844L31.391 68.4288L27.6474 67.6229C20.7171 66.1313 16.6665 64.5126 13.9276 62.1401C12.7497 61.1197 11.8363 59.4017 12.0198 58.5521L12.088 58.2368L13.3285 58.7411C16.9522 60.2145 20.3945 61.2163 25.3289 62.234L29.4133 63.0765L27.2298 62.3013C22.4198 60.5937 18.359 58.7567 15.7161 57.0923C11.9641 54.7297 9.80689 52.1138 9.90768 50.0486C9.9348 49.4953 9.97914 49.4044 10.1717 49.5093C11.5377 50.2544 15.5342 52.2161 17.2515 52.9848C21.5918 54.9268 28.1517 57.2327 30.6402 57.6906C31.5546 57.8587 31.504 57.8268 29.0139 56.6622C25.4605 55.0002 23.0158 53.6637 20.3314 51.9161C17.288 49.9342 15.5377 48.4399 13.9364 46.4557C12.0885 44.1661 11.4994 42.4074 11.9269 40.4552C12.2235 39.1009 12.3599 39.0564 13.3212 40.0003C15.0095 41.6586 17.215 43.502 19.2216 44.9325C20.6341 45.9396 25.2962 48.7529 25.6743 48.8263C25.7522 48.8411 26.0341 48.9875 26.3007 49.1511C27.3683 49.8075 33.1489 52.2568 34.0575 52.4383C34.4009 52.5067 33.9963 52.1697 32.4381 51.09C22.7933 44.4076 16.9845 37.6678 16.4323 32.5177C16.3197 31.4658 16.5486 29.7889 16.8628 29.3679C16.9739 29.2188 17.4101 29.6637 18.5956 31.1345C23.3349 37.014 30.2861 42.749 37.5318 46.758C37.992 47.0129 38.3993 47.2045 38.4366 47.1844C38.4743 47.1642 37.633 46.3853 36.5677 45.4543C27.6676 37.6731 23.3988 31.0554 23.8875 25.795C23.9312 25.3276 24.0621 24.7902 24.1792 24.6004C24.385 24.2657 24.4709 24.3524 27.0104 27.4476ZM84.2211 72.2975C82.8595 72.2135 82.6476 72.2409 82.1144 72.5691C81.2054 73.1293 80.4858 73.8527 80.0234 74.6719C79.5544 75.5022 79.567 75.73 80.0747 75.6129C80.2637 75.5695 80.8521 75.6163 81.383 75.7175L82.3479 75.9012L81.6002 76.3165C81.1891 76.5447 80.7479 76.9338 80.6205 77.1813C80.3265 77.7522 80.4056 78.7323 80.824 79.6965L81.145 80.437L81.7584 80.1666C82.3825 79.8916 83.5319 79.6626 83.6369 79.7923C83.6684 79.8315 83.5806 80.0175 83.4418 80.205C83.0801 80.6941 82.9587 81.4186 83.1299 82.0678C83.2862 82.6607 83.7479 83.3716 84.0088 83.4214C84.094 83.4378 84.7912 83.14 85.5579 82.76C86.3247 82.3805 87.2462 81.9784 87.6052 81.867C88.2757 81.659 89.9351 81.6225 91.6732 81.7776C92.2133 81.8259 92.6621 81.8343 92.6705 81.7963C92.683 81.7377 92.4134 81.2805 91.2339 79.3587C91.0803 79.1081 91.7961 78.9872 93.7555 78.932C94.509 78.9111 95.2179 78.8871 95.3309 78.8791C95.4746 78.8689 95.483 78.6148 95.3586 78.0261C95.2613 77.5651 95.2331 77.1601 95.2959 77.1262C95.3586 77.092 95.9934 77.5061 96.7065 78.0458C98.2172 79.1895 98.5226 79.3059 98.4796 78.7217C98.4305 78.0584 97.8935 77.1589 97.2253 76.6219C94.2408 74.2216 89.4202 72.6185 84.2211 72.2975ZM95.761 80.7884C95.1913 80.7675 94.6976 80.7614 94.6641 80.7751C94.6311 80.7888 94.763 81.1851 94.957 81.6563C95.2594 82.3881 95.451 82.6045 96.2821 83.1491C97.1002 83.6857 97.2774 83.882 97.4025 84.392C97.4839 84.7256 97.5174 85.1523 97.4767 85.3409C97.3827 85.7764 97.4866 85.7912 98.5032 85.4858C99.5308 85.1774 100.421 84.6103 100.505 84.211C100.6 83.7591 100.141 82.4402 99.6389 81.7267L99.195 81.0957L97.9962 80.9611C97.3371 80.8873 96.3311 80.8097 95.761 80.7884ZM58.4541 101.209C56.9933 102.694 55.2266 104.481 54.5283 105.18C53.8301 105.879 52.2886 107.423 51.1031 108.611C49.9176 109.8 48.9771 110.808 49.0128 110.852C49.0482 110.896 49.4947 110.845 50.004 110.739C50.5136 110.632 51.3237 110.494 51.8044 110.433L52.6788 110.322L52.7583 110.904C52.802 111.224 52.8716 111.492 52.9135 111.5C52.9926 111.515 56.0318 111.02 57.6026 110.737C58.4385 110.586 58.5511 110.514 59.0105 109.839C59.3745 109.303 60.0363 108.978 60.0363 108.978C61.8162 108.549 63.3497 108.091 63.4486 107.959C63.6897 107.635 67.1926 100.462 67.1405 100.397C67.1104 100.36 65.704 100.696 64.0142 101.142C62.3247 101.589 60.9027 101.905 60.854 101.845C60.8049 101.784 60.8913 101.018 61.0461 100.143C61.2001 99.2674 61.2781 98.5418 61.2187 98.5304C61.159 98.519 59.915 99.7246 58.4541 101.209Z" fill="url(#paint1_linear_115_469)"/>
<path d="M107.232 106.567C107.232 105.928 107.365 105.362 107.632 104.87C107.911 104.363 108.284 103.971 108.75 103.691C109.229 103.412 109.769 103.272 110.368 103.272C110.86 103.272 111.32 103.352 111.746 103.511C112.185 103.658 112.564 103.858 112.884 104.11C113.203 104.363 113.43 104.643 113.563 104.949V102.952C113.243 102.58 112.784 102.293 112.185 102.094C111.599 101.881 110.993 101.774 110.368 101.774C109.475 101.774 108.67 101.981 107.951 102.393C107.232 102.806 106.66 103.372 106.234 104.091C105.821 104.81 105.615 105.635 105.615 106.567C105.615 107.486 105.821 108.311 106.234 109.043C106.66 109.762 107.232 110.328 107.951 110.741C108.67 111.153 109.475 111.36 110.368 111.36C110.993 111.36 111.599 111.26 112.185 111.06C112.784 110.847 113.243 110.554 113.563 110.181V108.185C113.43 108.477 113.203 108.757 112.884 109.023C112.564 109.276 112.185 109.483 111.746 109.642C111.32 109.789 110.86 109.862 110.368 109.862C109.769 109.862 109.229 109.722 108.75 109.443C108.284 109.15 107.911 108.757 107.632 108.264C107.365 107.772 107.232 107.206 107.232 106.567ZM117.648 106.567C117.648 107.486 117.854 108.311 118.266 109.043C118.692 109.762 119.265 110.328 119.984 110.741C120.703 111.153 121.508 111.36 122.4 111.36C123.306 111.36 124.111 111.153 124.817 110.741C125.536 110.328 126.101 109.762 126.514 109.043C126.94 108.311 127.153 107.486 127.153 106.567C127.153 105.635 126.94 104.81 126.514 104.091C126.101 103.372 125.536 102.806 124.817 102.393C124.111 101.981 123.306 101.774 122.4 101.774C121.508 101.774 120.703 101.981 119.984 102.393C119.265 102.806 118.692 103.372 118.266 104.091C117.854 104.81 117.648 105.635 117.648 106.567ZM119.265 106.567C119.265 105.928 119.398 105.362 119.665 104.87C119.944 104.363 120.317 103.971 120.783 103.691C121.262 103.412 121.801 103.272 122.4 103.272C122.999 103.272 123.532 103.412 123.998 103.691C124.477 103.971 124.85 104.363 125.116 104.87C125.396 105.362 125.536 105.928 125.536 106.567C125.536 107.206 125.396 107.772 125.116 108.264C124.85 108.757 124.477 109.15 123.998 109.443C123.532 109.722 122.999 109.862 122.4 109.862C121.801 109.862 121.262 109.722 120.783 109.443C120.317 109.15 119.944 108.757 119.665 108.264C119.398 107.772 119.265 107.206 119.265 106.567ZM144.325 105.369C144.325 104.61 144.205 103.964 143.966 103.432C143.739 102.886 143.407 102.473 142.967 102.194C142.528 101.914 141.996 101.774 141.37 101.774C140.757 101.774 140.211 101.921 139.732 102.213C139.253 102.493 138.854 102.919 138.534 103.492C138.321 102.946 137.982 102.526 137.516 102.234C137.063 101.927 136.517 101.774 135.878 101.774C135.306 101.774 134.806 101.901 134.38 102.154C133.968 102.407 133.621 102.793 133.342 103.312V101.974H131.744V111.16H133.342V105.568C133.342 105.089 133.428 104.676 133.601 104.33C133.774 103.984 134.021 103.724 134.34 103.551C134.66 103.365 135.039 103.272 135.479 103.272C136.078 103.272 136.517 103.458 136.796 103.831C137.089 104.204 137.236 104.783 137.236 105.568V111.16H138.833V105.568C138.833 105.089 138.92 104.676 139.093 104.33C139.266 103.984 139.512 103.724 139.832 103.551C140.152 103.365 140.531 103.272 140.97 103.272C141.57 103.272 142.009 103.458 142.288 103.831C142.581 104.204 142.728 104.783 142.728 105.568V111.16H144.325V105.369ZM162.304 105.369C162.304 104.61 162.184 103.964 161.944 103.432C161.718 102.886 161.385 102.473 160.946 102.194C160.506 101.914 159.974 101.774 159.348 101.774C158.736 101.774 158.19 101.921 157.71 102.213C157.231 102.493 156.832 102.919 156.512 103.492C156.299 102.946 155.96 102.526 155.494 102.234C155.041 101.927 154.495 101.774 153.857 101.774C153.284 101.774 152.785 101.901 152.359 102.154C151.946 102.407 151.6 102.793 151.32 103.312V101.974H149.723V111.16H151.32V105.568C151.32 105.089 151.407 104.676 151.58 104.33C151.753 103.984 151.999 103.724 152.319 103.551C152.638 103.365 153.017 103.272 153.457 103.272C154.056 103.272 154.495 103.458 154.775 103.831C155.068 104.204 155.214 104.783 155.214 105.568V111.16H156.812V105.568C156.812 105.089 156.898 104.676 157.071 104.33C157.244 103.984 157.491 103.724 157.81 103.551C158.13 103.365 158.509 103.272 158.949 103.272C159.548 103.272 159.987 103.458 160.267 103.831C160.559 104.204 160.706 104.783 160.706 105.568V111.16H162.304V105.369ZM166.902 106.567C166.902 107.486 167.109 108.311 167.521 109.043C167.947 109.762 168.52 110.328 169.239 110.741C169.958 111.153 170.763 111.36 171.655 111.36C172.56 111.36 173.366 111.153 174.071 110.741C174.79 110.328 175.356 109.762 175.769 109.043C176.195 108.311 176.408 107.486 176.408 106.567C176.408 105.635 176.195 104.81 175.769 104.091C175.356 103.372 174.79 102.806 174.071 102.393C173.366 101.981 172.56 101.774 171.655 101.774C170.763 101.774 169.958 101.981 169.239 102.393C168.52 102.806 167.947 103.372 167.521 104.091C167.109 104.81 166.902 105.635 166.902 106.567ZM168.52 106.567C168.52 105.928 168.653 105.362 168.919 104.87C169.199 104.363 169.571 103.971 170.038 103.691C170.517 103.412 171.056 103.272 171.655 103.272C172.254 103.272 172.787 103.412 173.253 103.691C173.732 103.971 174.105 104.363 174.371 104.87C174.651 105.362 174.79 105.928 174.79 106.567C174.79 107.206 174.651 107.772 174.371 108.264C174.105 108.757 173.732 109.15 173.253 109.443C172.787 109.722 172.254 109.862 171.655 109.862C171.056 109.862 170.517 109.722 170.038 109.443C169.571 109.15 169.199 108.757 168.919 108.264C168.653 107.772 168.52 107.206 168.52 106.567ZM187.889 95.5835V111.16H189.486V95.5835H187.889ZM180.2 106.567C180.2 107.552 180.407 108.404 180.819 109.123C181.232 109.842 181.784 110.395 182.477 110.781C183.169 111.167 183.928 111.36 184.753 111.36C185.525 111.36 186.198 111.167 186.77 110.781C187.343 110.395 187.789 109.842 188.108 109.123C188.441 108.404 188.608 107.552 188.608 106.567C188.608 105.568 188.441 104.716 188.108 104.011C187.789 103.292 187.343 102.739 186.77 102.353C186.198 101.967 185.525 101.774 184.753 101.774C183.928 101.774 183.169 101.967 182.477 102.353C181.784 102.739 181.232 103.292 180.819 104.011C180.407 104.716 180.2 105.568 180.2 106.567ZM181.818 106.567C181.818 105.861 181.958 105.262 182.237 104.77C182.53 104.277 182.916 103.904 183.395 103.651C183.875 103.399 184.394 103.272 184.953 103.272C185.419 103.272 185.878 103.399 186.331 103.651C186.784 103.904 187.156 104.277 187.449 104.77C187.742 105.262 187.889 105.861 187.889 106.567C187.889 107.273 187.742 107.872 187.449 108.364C187.156 108.857 186.784 109.23 186.331 109.483C185.878 109.736 185.419 109.862 184.953 109.862C184.394 109.862 183.875 109.736 183.395 109.483C182.916 109.23 182.53 108.857 182.237 108.364C181.958 107.872 181.818 107.273 181.818 106.567ZM194.785 98.1796C194.785 98.4725 194.891 98.7319 195.104 98.9585C195.33 99.1715 195.59 99.278 195.883 99.278C196.189 99.278 196.448 99.1715 196.661 98.9585C196.875 98.7319 196.981 98.4725 196.981 98.1796C196.981 97.8735 196.875 97.6137 196.661 97.4007C196.448 97.1877 196.189 97.0812 195.883 97.0812C195.59 97.0812 195.33 97.1877 195.104 97.4007C194.891 97.6137 194.785 97.8735 194.785 98.1796ZM195.084 101.974V111.16H196.682V101.974H195.084ZM200.971 101.974V103.472H205.563V101.974H200.971ZM202.468 98.7787V111.16H204.066V98.7787H202.468ZM216.851 101.974H215.054L212.218 109.083L212.877 109.163L209.962 101.974H208.064L211.579 109.862L209.063 115.553H210.86L216.851 101.974ZM227.74 101.974V103.472H232.333V101.974H227.74ZM229.237 98.7787V111.16H230.835V98.7787H229.237ZM237.929 101.974H236.331V111.16H237.929V101.974ZM240.705 103.731L241.583 102.413C241.344 102.16 241.077 101.994 240.785 101.914C240.505 101.821 240.199 101.774 239.866 101.774C239.44 101.774 239.021 101.941 238.608 102.273C238.195 102.606 237.856 103.059 237.589 103.631C237.337 104.19 237.21 104.836 237.21 105.568H237.929C237.929 105.129 237.969 104.736 238.048 104.39C238.142 104.044 238.302 103.771 238.528 103.572C238.754 103.372 239.067 103.272 239.466 103.272C239.733 103.272 239.952 103.312 240.125 103.392C240.299 103.458 240.492 103.572 240.705 103.731ZM246.292 108.324C246.292 107.991 246.372 107.705 246.531 107.466C246.691 107.226 246.931 107.039 247.25 106.906C247.583 106.773 248.009 106.707 248.528 106.707C249.088 106.707 249.614 106.78 250.106 106.926C250.599 107.06 251.078 107.286 251.544 107.605V106.667C251.451 106.547 251.271 106.394 251.005 106.208C250.738 106.008 250.379 105.835 249.926 105.688C249.487 105.528 248.934 105.448 248.269 105.448C247.137 105.448 246.252 105.722 245.613 106.267C244.987 106.8 244.674 107.512 244.674 108.404C244.674 109.03 244.821 109.563 245.114 110.002C245.406 110.441 245.792 110.781 246.272 111.02C246.765 111.247 247.29 111.36 247.849 111.36C248.355 111.36 248.861 111.266 249.367 111.08C249.886 110.894 250.319 110.608 250.665 110.221C251.025 109.835 251.204 109.35 251.204 108.763L250.885 107.565C250.885 108.045 250.765 108.471 250.525 108.844C250.299 109.203 249.986 109.483 249.587 109.682C249.201 109.882 248.761 109.982 248.269 109.982C247.883 109.982 247.537 109.922 247.23 109.802C246.938 109.669 246.704 109.476 246.531 109.223C246.372 108.97 246.292 108.67 246.292 108.324ZM246.052 104.091C246.199 103.984 246.398 103.858 246.651 103.711C246.904 103.565 247.21 103.438 247.57 103.332C247.943 103.225 248.355 103.172 248.808 103.172C249.088 103.172 249.354 103.199 249.607 103.252C249.86 103.305 250.079 103.392 250.266 103.511C250.466 103.631 250.618 103.798 250.725 104.011C250.832 104.211 250.885 104.47 250.885 104.79V111.16H252.482V104.57C252.482 103.971 252.329 103.465 252.023 103.052C251.73 102.639 251.311 102.327 250.765 102.114C250.232 101.887 249.607 101.774 248.888 101.774C248.036 101.774 247.303 101.901 246.691 102.154C246.092 102.407 245.619 102.66 245.273 102.912L246.052 104.091ZM264.473 95.5835V111.16H266.071V95.5835H264.473ZM256.785 106.567C256.785 107.552 256.991 108.404 257.404 109.123C257.817 109.842 258.369 110.395 259.061 110.781C259.754 111.167 260.513 111.36 261.338 111.36C262.11 111.36 262.782 111.167 263.355 110.781C263.927 110.395 264.373 109.842 264.693 109.123C265.026 108.404 265.192 107.552 265.192 106.567C265.192 105.568 265.026 104.716 264.693 104.011C264.373 103.292 263.927 102.739 263.355 102.353C262.782 101.967 262.11 101.774 261.338 101.774C260.513 101.774 259.754 101.967 259.061 102.353C258.369 102.739 257.817 103.292 257.404 104.011C256.991 104.716 256.785 105.568 256.785 106.567ZM258.403 106.567C258.403 105.861 258.542 105.262 258.822 104.77C259.115 104.277 259.501 103.904 259.98 103.651C260.459 103.399 260.979 103.272 261.538 103.272C262.004 103.272 262.463 103.399 262.916 103.651C263.368 103.904 263.741 104.277 264.034 104.77C264.327 105.262 264.473 105.861 264.473 106.567C264.473 107.273 264.327 107.872 264.034 108.364C263.741 108.857 263.368 109.23 262.916 109.483C262.463 109.736 262.004 109.862 261.538 109.862C260.979 109.862 260.459 109.736 259.98 109.483C259.501 109.23 259.115 108.857 258.822 108.364C258.542 107.872 258.403 107.273 258.403 106.567ZM271.369 98.1796C271.369 98.4725 271.476 98.7319 271.689 98.9585C271.915 99.1715 272.175 99.278 272.468 99.278C272.774 99.278 273.033 99.1715 273.246 98.9585C273.459 98.7319 273.566 98.4725 273.566 98.1796C273.566 97.8735 273.459 97.6137 273.246 97.4007C273.033 97.1877 272.774 97.0812 272.468 97.0812C272.175 97.0812 271.915 97.1877 271.689 97.4007C271.476 97.6137 271.369 97.8735 271.369 98.1796ZM271.669 101.974V111.16H273.266V101.974H271.669ZM284.844 105.568V111.16H286.442V105.369C286.442 104.264 286.156 103.392 285.583 102.753C285.024 102.1 284.259 101.774 283.286 101.774C282.687 101.774 282.155 101.907 281.689 102.173C281.236 102.44 280.857 102.852 280.551 103.412V101.974H278.953V111.16H280.551V105.568C280.551 105.116 280.644 104.716 280.83 104.37C281.03 104.024 281.303 103.758 281.649 103.572C282.008 103.372 282.421 103.272 282.887 103.272C283.526 103.272 284.012 103.465 284.345 103.851C284.678 104.237 284.844 104.81 284.844 105.568ZM291.222 111.759C291.222 112.545 291.416 113.237 291.802 113.836C292.188 114.448 292.72 114.921 293.399 115.254C294.092 115.587 294.883 115.753 295.776 115.753C296.548 115.753 297.28 115.573 297.972 115.214C298.665 114.854 299.23 114.315 299.67 113.596C300.109 112.891 300.329 112.012 300.329 110.96V101.974H298.731V110.96C298.731 111.733 298.578 112.358 298.272 112.838C297.979 113.33 297.606 113.689 297.154 113.916C296.701 114.142 296.242 114.255 295.776 114.255C295.176 114.255 294.657 114.136 294.218 113.896C293.779 113.67 293.439 113.364 293.199 112.977C292.96 112.604 292.84 112.199 292.84 111.759H291.222ZM291.042 106.567C291.042 107.552 291.249 108.404 291.662 109.123C292.074 109.842 292.627 110.395 293.319 110.781C294.012 111.167 294.77 111.36 295.596 111.36C296.368 111.36 297.04 111.167 297.613 110.781C298.185 110.395 298.631 109.842 298.951 109.123C299.283 108.404 299.45 107.552 299.45 106.567C299.45 105.568 299.283 104.716 298.951 104.011C298.631 103.292 298.185 102.739 297.613 102.353C297.04 101.967 296.368 101.774 295.596 101.774C294.77 101.774 294.012 101.967 293.319 102.353C292.627 102.739 292.074 103.292 291.662 104.011C291.249 104.716 291.042 105.568 291.042 106.567ZM292.66 106.567C292.66 105.861 292.8 105.262 293.08 104.77C293.372 104.277 293.758 103.904 294.238 103.651C294.717 103.399 295.236 103.272 295.795 103.272C296.142 103.272 296.488 103.345 296.834 103.492C297.18 103.638 297.493 103.851 297.772 104.131C298.065 104.41 298.298 104.756 298.471 105.169C298.645 105.568 298.731 106.035 298.731 106.567C298.731 107.273 298.585 107.872 298.292 108.364C297.999 108.857 297.626 109.23 297.173 109.483C296.721 109.736 296.261 109.862 295.795 109.862C295.236 109.862 294.717 109.736 294.238 109.483C293.758 109.23 293.372 108.857 293.08 108.364C292.8 107.872 292.66 107.273 292.66 106.567Z" fill="#0D5E9B"/>
</g>
<defs>
<filter id="filter0_i_115_469" x="96.499" y="44.5859" width="204.56" height="44.6972" filterUnits="userSpaceOnUse" color-interpolation-filters="sRGB">
<feFlood flood-opacity="0" result="BackgroundImageFix"/>
<feBlend mode="normal" in="SourceGraphic" in2="BackgroundImageFix" result="shape"/>
<feColorMatrix in="SourceAlpha" type="matrix" values="0 0 0 0 0 0 0 0 0 0 0 0 0 0 0 0 0 0 127 0" result="hardAlpha"/>
<feOffset dy="2.34941"/>
<feGaussianBlur stdDeviation="1.1747"/>
<feComposite in2="hardAlpha" operator="arithmetic" k2="-1" k3="1"/>
<feColorMatrix type="matrix" values="0 0 0 0 0 0 0 0 0 0 0 0 0 0 0 0 0 0 0.25 0"/>
<feBlend mode="normal" in2="shape" result="effect1_innerShadow_115_469"/>
</filter>
<linearGradient id="paint0_linear_115_469" x1="94.4433" y1="31.0062" x2="348.804" y2="86.8378" gradientUnits="userSpaceOnUse">
<stop stop-color="#074F86"/>
<stop offset="1" stop-color="#6FC1FF"/>
</linearGradient>
<linearGradient id="paint1_linear_115_469" x1="4.72059" y1="88.5886" x2="92.0703" y2="105.636" gradientUnits="userSpaceOnUse">
<stop stop-color="#0C314D"/>
<stop offset="0.994288" stop-color="#0B548B"/>
</linearGradient>
<clipPath id="clip0_115_469">
<rect width="314" height="132.659" fill="white" transform="translate(0 0.730225)"/>
</clipPath>
</defs>
</svg>
