<svg width="53" height="53" viewBox="0 0 53 53" fill="none" xmlns="http://www.w3.org/2000/svg">
<path fill-rule="evenodd" clip-rule="evenodd" d="M23.9139 0.146151C23.7484 0.178618 22.9359 0.312897 22.1084 0.44477C18.799 0.972065 14.9489 2.51667 11.8774 4.54869C9.86894 5.87765 6.19562 9.56149 4.88144 11.5646C-1.01942 20.5597 -0.991133 31.7552 4.95507 40.7252C6.22411 42.6393 9.94778 46.3791 11.7932 47.5928C18.7753 52.1846 26.8096 53.3287 34.546 50.8326C38.6982 49.493 41.6465 47.6684 44.8813 44.4369C48.1159 41.2052 49.9422 38.2597 51.2831 34.1114C53.7734 26.4079 52.6324 18.3191 48.0884 11.4644C46.8074 9.53203 43.1003 5.82854 41.1661 4.54869C36.7166 1.60478 31.4188 0.0068615 26.2973 0.06398C25.1518 0.0768067 24.0794 0.113683 23.9139 0.146151ZM28.4275 3.2534C33.8838 3.76326 38.4517 5.82153 42.2845 9.49776C44.2037 11.3386 45.4358 12.8886 46.5215 14.8282C50.7252 22.338 50.4141 31.4307 45.7044 38.704C44.5924 40.4215 41.9625 43.2005 40.1695 44.5529C38.3299 45.94 34.8046 47.6401 32.54 48.232C25.628 50.0383 18.3304 48.6444 12.7471 44.4515C11.0688 43.1911 8.42537 40.3819 7.33908 38.704C3.86998 33.3467 2.76022 27.0666 4.18012 20.8291C5.07643 16.8921 6.99524 13.3792 9.90104 10.3553C13.923 6.16985 18.6377 3.85565 24.3682 3.2538C25.1664 3.17003 25.9099 3.08926 26.0202 3.07443C26.1306 3.0594 27.2138 3.14016 28.4275 3.2534ZM19.4002 9.34164C18.2822 10.017 17.9829 10.3012 17.9315 10.7361C17.8846 11.1354 18.4461 12.2908 20.0193 15.0308C22.4715 19.3027 23.0015 20.0823 23.4535 20.0823C23.8061 20.0823 26.212 18.8047 26.7725 18.3199C26.9657 18.1527 27.1236 17.8443 27.1236 17.6344C27.1236 17.2599 22.7493 9.49656 22.1509 8.80893C21.6817 8.26981 20.9352 8.41451 19.4002 9.34164ZM15.9873 12.3441C13.7992 13.83 13.2195 14.9138 13.2417 17.4769C13.2969 23.8249 18.1556 33.7687 24.1131 39.7261C25.9215 41.5347 28.1208 43.1155 29.4017 43.5276C29.8272 43.6645 30.6847 43.739 31.3074 43.6931C32.5099 43.6048 34.7466 42.7119 34.7466 42.3205C34.7466 42.1421 30.2811 34.204 30.0406 33.9547C30.0105 33.9237 29.5902 34.0024 29.1066 34.1297C26.8355 34.7275 23.9642 32.5386 21.9708 28.6894C20.2181 25.3052 20.0534 22.1288 21.5481 20.5391C21.863 20.2042 21.925 19.9915 21.7894 19.7104C21.3519 18.8039 17.1835 11.6683 17.0906 11.6667C17.0338 11.6657 16.5373 11.9705 15.9873 12.3441ZM32.4397 31.2206C30.8173 32.1993 30.489 32.5177 30.585 33.0202C30.6296 33.2529 31.7738 35.3528 33.1277 37.6867C34.9902 40.8969 35.7029 41.9587 36.0554 42.0469C36.384 42.1295 36.9539 41.9128 37.9911 41.3114C38.7995 40.8424 39.5273 40.3608 39.6084 40.2412C39.9757 39.699 39.5688 38.7479 37.2873 34.8129C34.4475 29.9155 34.5175 29.9672 32.4397 31.2206Z" fill="url(#paint0_linear_2_100)"/>
<defs>
<linearGradient id="paint0_linear_2_100" x1="0.475525" y1="26.0933" x2="52.5733" y2="26.0933" gradientUnits="userSpaceOnUse">
<stop stop-color="#0B3F66"/>
<stop offset="1" stop-color="#008EEC"/>
</linearGradient>
</defs>
</svg>
