<svg width="17" height="19" viewBox="0 0 17 19" fill="none" xmlns="http://www.w3.org/2000/svg">
<path opacity="0.7" fill-rule="evenodd" clip-rule="evenodd" d="M6.13268 0.281056C4.54334 0.467276 3.26189 1.13274 2.20092 2.32273C1.52704 3.07863 1.02885 3.97163 0.707946 4.99899C0.332271 6.20171 0.276592 7.68882 0.559803 8.9536C0.834787 10.1814 1.40001 11.2984 2.20092 12.1968C3.87811 14.0779 6.31227 14.7255 8.58818 13.8961C9.14049 13.6948 9.94875 13.2165 10.3791 12.8363L10.495 12.7339L13.1598 15.7239C14.6749 17.424 15.8877 18.7562 15.9709 18.8118C16.0866 18.8892 16.1582 18.9095 16.3124 18.9091C16.7639 18.9077 17.068 18.473 16.9742 17.963C16.9409 17.7819 16.9055 17.7403 14.2071 14.7113L11.4737 11.6429L11.6196 11.4295C11.912 11.0016 12.2255 10.3661 12.4204 9.80638C13.2108 7.53512 12.8895 4.96523 11.5712 3.01525C11.3136 2.63417 10.7252 1.9752 10.3932 1.69592C9.54134 0.979264 8.62285 0.542173 7.5637 0.349389C7.24579 0.291521 6.39147 0.250718 6.13268 0.281056ZM7.34947 1.88262C8.29319 2.05418 9.10328 2.47836 9.8078 3.16982C10.6839 4.02971 11.2449 5.19254 11.4181 6.50739C11.466 6.87166 11.4667 7.63959 11.4194 8.0121C11.0774 10.7054 9.03176 12.6957 6.60918 12.6922C5.26665 12.6903 4.07009 12.123 3.13726 11.0462C2.42966 10.2294 2.00455 9.29085 1.81858 8.13488C1.74635 7.68594 1.76401 6.6671 1.85205 6.2023C2.0653 5.07652 2.51812 4.14461 3.22703 3.37267C3.97197 2.56146 4.82229 2.07938 5.85623 1.88207C6.2053 1.81549 6.98173 1.81574 7.34947 1.88262Z" fill="white"/>
</svg>
